<?xml version="1.0" encoding="UTF-8"?><svg id="_レイヤー_2" xmlns="http://www.w3.org/2000/svg" xmlns:xlink="http://www.w3.org/1999/xlink" viewBox="0 0 452.12 132.1"><defs><style>.cls-1{fill:url(#_裼_胙琅韃_12);}.cls-2{fill:url(#_裼_胙琅韃_12-12);}.cls-3{fill:url(#_裼_胙琅韃_12-13);}.cls-4{fill:url(#_裼_胙琅韃_12-14);}.cls-5{fill:url(#_裼_胙琅韃_12-11);}.cls-6{fill:url(#_裼_胙琅韃_12-10);}.cls-7{fill:url(#_裼_胙琅韃_12-17);}.cls-7,.cls-8,.cls-9,.cls-10{fill-rule:evenodd;}.cls-8{fill:url(#_裼_胙琅韃_12-18);}.cls-9{fill:url(#_裼_胙琅韃_12-15);}.cls-10{fill:url(#_裼_胙琅韃_12-16);}.cls-11{fill:url(#_裼_胙琅韃_12-4);}.cls-12{fill:url(#_裼_胙琅韃_12-5);}.cls-13{fill:url(#_裼_胙琅韃_12-2);}.cls-14{fill:url(#_裼_胙琅韃_12-9);}.cls-15{fill:url(#_裼_胙琅韃_12-7);}.cls-16{fill:url(#_裼_胙琅韃_12-3);}.cls-17{fill:url(#_裼_胙琅韃_12-6);}.cls-18{fill:url(#_裼_胙琅韃_12-8);}</style><linearGradient id="_裼_胙琅韃_12" x1="76.61" y1="-62.25" x2="76.61" y2="167.99" gradientUnits="userSpaceOnUse"><stop offset="0" stop-color="#eee1ac"/><stop offset="1" stop-color="#b28e40"/></linearGradient><linearGradient id="_裼_胙琅韃_12-2" x1="115.69" y1="-62.25" x2="115.69" y2="167.99" xlink:href="#_裼_胙琅韃_12"/><linearGradient id="_裼_胙琅韃_12-3" x1="146.63" y1="-62.25" x2="146.63" y2="167.99" xlink:href="#_裼_胙琅韃_12"/><linearGradient id="_裼_胙琅韃_12-4" x1="181.94" y1="-62.25" x2="181.94" y2="167.99" xlink:href="#_裼_胙琅韃_12"/><linearGradient id="_裼_胙琅韃_12-5" x1="225.71" y1="-62.25" x2="225.71" y2="167.99" xlink:href="#_裼_胙琅韃_12"/><linearGradient id="_裼_胙琅韃_12-6" x1="278.59" y1="-62.25" x2="278.59" y2="167.99" xlink:href="#_裼_胙琅韃_12"/><linearGradient id="_裼_胙琅韃_12-7" x1="304.18" y1="-62.25" x2="304.18" y2="167.99" xlink:href="#_裼_胙琅韃_12"/><linearGradient id="_裼_胙琅韃_12-8" x1="335.03" y1="-62.25" x2="335.03" y2="167.99" xlink:href="#_裼_胙琅韃_12"/><linearGradient id="_裼_胙琅韃_12-9" x1="376.28" y1="-62.25" x2="376.28" y2="167.99" xlink:href="#_裼_胙琅韃_12"/><linearGradient id="_裼_胙琅韃_12-10" x1="118.73" y1="-62.25" x2="118.73" y2="167.99" xlink:href="#_裼_胙琅韃_12"/><linearGradient id="_裼_胙琅韃_12-11" x1="176.94" y1="-62.25" x2="176.94" y2="167.99" xlink:href="#_裼_胙琅韃_12"/><linearGradient id="_裼_胙琅韃_12-12" x1="228.04" y1="-62.25" x2="228.04" y2="167.99" xlink:href="#_裼_胙琅韃_12"/><linearGradient id="_裼_胙琅韃_12-13" x1="279.16" y1="-62.25" x2="279.16" y2="167.99" xlink:href="#_裼_胙琅韃_12"/><linearGradient id="_裼_胙琅韃_12-14" x1="329.21" y1="-62.25" x2="329.21" y2="167.99" xlink:href="#_裼_胙琅韃_12"/><linearGradient id="_裼_胙琅韃_12-15" x1="365.17" y1="-34.65" x2="418.38" y2="92.73" xlink:href="#_裼_胙琅韃_12"/><linearGradient id="_裼_胙琅韃_12-16" x1="363.58" y1="-33.98" x2="416.79" y2="93.4" xlink:href="#_裼_胙琅韃_12"/><linearGradient id="_裼_胙琅韃_12-17" x1="7.64" y1="-8.13" x2="60.85" y2="119.25" xlink:href="#_裼_胙琅韃_12"/><linearGradient id="_裼_胙琅韃_12-18" x1="-4.39" y1="-3.11" x2="48.82" y2="124.27" xlink:href="#_裼_胙琅韃_12"/></defs><g id="_コンセプト"><path class="cls-1" d="M80.74,39.65c-1.65-.1-3.8-.2-5.7-.2-2.1,0-4.1.1-6.2.2l-1.9,5.25c-1.1,2.95-1,4.45-.55,5.6.45,1.05,2.1,1.4,3.9,1.6.3,0,.45.1.45.65s-.15.65-.55.65c-1.85-.1-4.4-.1-6.25-.1-1.75,0-3.6,0-5.25.1-.45,0-.55-.1-.55-.65s.1-.65.55-.65c1.35-.2,2.2-.85,2.95-1.55,1-1,1.95-2.85,3.05-5.85l6-16.2c2.35-6.3,2.8-7.85,3.6-10.5l3.95-1.8c.35,0,.55.1.65.45,1,3.1,1.9,5.6,4.15,12.15l5.65,16.3c1,2.95,1.7,4.7,2.5,5.7.85,1.05,1.35,1.15,3.25,1.3.55,0,.65.1.65.65s-.1.65-.65.65c-2.15-.05-4.95-.1-7.1-.1-1.95,0-4.9.05-7.05.1-.35,0-.4-.1-.4-.65s.1-.65.4-.65c1.9-.1,3.15-.3,3.45-1.3.35-1.1.05-2.5-.9-5.25l-2.1-5.9ZM77.04,28.9c-1.15-3.3-1.55-4.75-2.1-6.55-.7,1.95-1.1,3.25-2.25,6.45l-3.2,8.85c1.65.1,3.65.1,5.55.1,1.6,0,3.55,0,5-.1l-3-8.75Z"/><path class="cls-13" d="M103.99,22.35l.25,21.9c.05,3.2.35,5.35,1.05,6.35s2.2,1.35,3.75,1.55c.4.05.45.15.45.65s-.1.6-.5.6c-1.9-.1-3.8-.15-5.85-.15s-4.2.05-6,.15c-.4,0-.45-.1-.45-.55,0-.5.05-.6.4-.65,1.4-.2,2.8-.55,3.45-1.6.8-1.1,1.2-3.25,1.25-6.35l.25-18.2c.05-3.2-.15-5.15-.8-6.1-.7-1-2.3-1.35-4.2-1.55-.35-.05-.45-.15-.45-.75,0-.55.1-.7.45-.7,1.8.05,3.75.15,5.25.15s3.65,0,6.1-.05c1.1,2.05,1.9,3.2,3.85,6.15l11.45,17.05c1.75,2.65,2.8,4.2,4.1,6.45v-5.7l-.1-14.95c0-2.9-.5-5.05-1.2-6.15-.6-1.05-2.2-1.35-3.55-1.5-.45-.05-.6-.1-.6-.7,0-.65.1-.75.45-.75,1.6.1,3.85.2,5.8.2s4.4-.1,5.75-.2c.35,0,.45.1.45.7,0,.55-.1.65-.45.7-1.4.2-2.65.5-3.25,1.55-.75,1.1-1.15,3.3-1.2,6.15l-.3,18.15c-.05,3.45,0,5.55.1,8.3-3.2,1.7-3.4,1.75-3.65,1.75-.2,0-.35-.1-.45-.25-1.6-2.55-2.5-4-5.65-8.75l-15.25-22.9h-.7Z"/><path class="cls-16" d="M149.53,44.2c0,5-.05,5.7.5,6.7.5,1,1.85,1.05,3.9,1.25.35.05.45.15.45.65s-.1.6-.5.6c-2.45-.05-5.05-.15-7.35-.15s-4.8.1-7,.15c-.3,0-.4-.1-.4-.6s.05-.6.35-.65c1.9-.2,3-.2,3.6-1.25.6-1.15.55-3.3.55-6.7v-18.15c0-4.8,0-5.4-.5-6.5-.55-1-1.8-1.05-3.9-1.25-.25,0-.35-.1-.35-.7,0-.55.1-.65.4-.65,2.4.05,5.05.2,7.25.2,2.35,0,4.9-.15,7.15-.2.35,0,.45.1.45.7,0,.55-.15.6-.45.65-1.9.2-3.05.25-3.6,1.25-.6,1.15-.55,3.35-.55,6.5v18.15Z"/><path class="cls-11" d="M190.89,23.55c.8-2.1,1.45-4.05,2.15-6.5,1.7.05,3.7.05,5.45.05,1.85,0,4.1-.05,5.95-.15.35,0,.45.1.45.65s-.1.65-.45.7c-2.15.2-3,.2-3.55,1.25-.75,1.25-.8,3.35-.75,6.5l.3,18.15c.1,5,.25,5.6.75,6.65.55,1.05,1.65,1.1,3.75,1.3.35.05.45.15.45.65s-.1.6-.5.6c-2.3-.1-5.25-.15-7.45-.15-2.4,0-4.9.05-7.05.15-.3,0-.4-.1-.4-.65,0-.45.1-.55.4-.6,1.95-.2,2.95-.2,3.5-1.3.65-1.1.65-3.3.6-6.65l-.2-21.9h-.45l-7.3,17.9c-2.25,5.55-3.65,8.8-5.2,12.65-.15.4-.3.55-.95.55-.8,0-.85-.15-1-.55-1.5-3.95-2.9-7.2-4.8-11.65l-7.95-18.9h-.6l-.1,21.9c0,3,.3,5.35.95,6.4.65,1,2.4,1.35,3.7,1.55.45.05.5.15.5.6,0,.55-.1.65-.55.65-1.9-.1-3.65-.15-5.75-.15s-3.9.05-5.8.15c-.35,0-.5-.1-.5-.6s.15-.6.5-.65c1.2-.2,2.65-.5,3.35-1.55.7-1.15,1.1-3.25,1.2-6.4l.5-18.15c.1-3.3.1-5.35-.65-6.5-.7-1.05-2.25-1.05-4-1.25-.3-.05-.45-.1-.45-.7,0-.55.15-.65.4-.65,2,.1,4.1.15,5.75.15,1.8,0,3.85,0,5.9-.05.6,2.05,1.25,3.85,2.05,5.75l7,16.7c1.05,2.5,1.45,3.5,2.45,6.1,1-2.4,1.25-3.25,2.3-6l6.1-16.05Z"/><path class="cls-12" d="M229.83,39.65c-1.65-.1-3.8-.2-5.7-.2-2.1,0-4.1.1-6.2.2l-1.9,5.25c-1.1,2.95-1,4.45-.55,5.6.45,1.05,2.1,1.4,3.9,1.6.3,0,.45.1.45.65s-.15.65-.55.65c-1.85-.1-4.4-.1-6.25-.1-1.75,0-3.6,0-5.25.1-.45,0-.55-.1-.55-.65s.1-.65.55-.65c1.35-.2,2.2-.85,2.95-1.55,1-1,1.95-2.85,3.05-5.85l6-16.2c2.35-6.3,2.8-7.85,3.6-10.5l3.95-1.8c.35,0,.55.1.65.45,1,3.1,1.9,5.6,4.15,12.15l5.65,16.3c1,2.95,1.7,4.7,2.5,5.7.85,1.05,1.35,1.15,3.25,1.3.55,0,.65.1.65.65s-.1.65-.65.65c-2.15-.05-4.95-.1-7.1-.1-1.95,0-4.9.05-7.05.1-.35,0-.4-.1-.4-.65s.1-.65.4-.65c1.9-.1,3.15-.3,3.45-1.3.35-1.1.05-2.5-.9-5.25l-2.1-5.9ZM226.13,28.9c-1.15-3.3-1.55-4.75-2.1-6.55-.7,1.95-1.1,3.25-2.25,6.45l-3.2,8.85c1.65.1,3.65.1,5.55.1,1.6,0,3.55,0,5-.1l-3-8.75Z"/><path class="cls-17" d="M274.33,44.2c0,2.1-.05,4.9.65,6.05.85,1.35,2.65,1.45,4.8,1.45,4.7,0,7-1.4,8.55-2.55,1.5-1.2,2.85-3.2,3.9-5,.2-.35.3-.45.85-.3.55.2.55.4.5.7-.55,2.65-1.65,6.3-2.6,8.85-4.45-.1-9.05-.15-13.2-.15-4.4,0-9.15.05-13.6.15-.35,0-.45-.1-.45-.6s.1-.6.45-.65c1.9-.2,2.85-.25,3.45-1.3.65-1.1.65-3.3.65-6.65v-18.15c0-4.8-.05-5.45-.6-6.55-.5-.95-1.6-1-3.6-1.2-.4-.05-.5-.1-.5-.65,0-.6.1-.7.5-.7,2.15.05,4.8.2,7.1.2s4.95-.15,7.1-.2c.4,0,.55.1.55.7,0,.55-.15.6-.45.65-1.9.2-2.95.2-3.5,1.2-.6,1.15-.55,3.4-.55,6.55v18.15Z"/><path class="cls-15" d="M307.08,44.2c0,5-.05,5.7.5,6.7.5,1,1.85,1.05,3.9,1.25.35.05.45.15.45.65s-.1.6-.5.6c-2.45-.05-5.05-.15-7.35-.15s-4.8.1-7,.15c-.3,0-.4-.1-.4-.6s.05-.6.35-.65c1.9-.2,3-.2,3.6-1.25.6-1.15.55-3.3.55-6.7v-18.15c0-4.8,0-5.4-.5-6.5-.55-1-1.8-1.05-3.9-1.25-.25,0-.35-.1-.35-.7,0-.55.1-.65.4-.65,2.4.05,5.05.2,7.25.2,2.35,0,4.9-.15,7.15-.2.35,0,.45.1.45.7,0,.55-.15.6-.45.65-1.9.2-3.05.25-3.6,1.25-.6,1.15-.55,3.35-.55,6.5v18.15Z"/><path class="cls-18" d="M323.33,22.35l.25,21.9c.05,3.2.35,5.35,1.05,6.35s2.2,1.35,3.75,1.55c.4.05.45.15.45.65s-.1.6-.5.6c-1.9-.1-3.8-.15-5.85-.15s-4.2.05-6,.15c-.4,0-.45-.1-.45-.55,0-.5.05-.6.4-.65,1.4-.2,2.8-.55,3.45-1.6.8-1.1,1.2-3.25,1.25-6.35l.25-18.2c.05-3.2-.15-5.15-.8-6.1-.7-1-2.3-1.35-4.2-1.55-.35-.05-.45-.15-.45-.75,0-.55.1-.7.45-.7,1.8.05,3.75.15,5.25.15s3.65,0,6.1-.05c1.1,2.05,1.9,3.2,3.85,6.15l11.45,17.05c1.75,2.65,2.8,4.2,4.1,6.45v-5.7l-.1-14.95c0-2.9-.5-5.05-1.2-6.15-.6-1.05-2.2-1.35-3.55-1.5-.45-.05-.6-.1-.6-.7,0-.65.1-.75.45-.75,1.6.1,3.85.2,5.8.2s4.4-.1,5.75-.2c.35,0,.45.1.45.7,0,.55-.1.65-.45.7-1.4.2-2.65.5-3.25,1.55-.75,1.1-1.15,3.3-1.2,6.15l-.3,18.15c-.05,3.45,0,5.55.1,8.3-3.2,1.7-3.4,1.75-3.65,1.75-.2,0-.35-.1-.45-.25-1.6-2.55-2.5-4-5.65-8.75l-15.25-22.9h-.7Z"/><path class="cls-14" d="M369.03,44.2c0,5,.05,5.65.6,6.65.65,1.05,1.65,1.1,3.65,1.3.4.05.5.15.5.65s-.1.6-.5.6c-2.35-.1-4.9-.15-7.15-.15s-4.8.05-6.85.15c-.4,0-.55-.1-.55-.6s.1-.6.45-.65c1.85-.2,2.9-.2,3.45-1.3.6-1.1.6-3.3.6-6.65v-18.15c0-4.8,0-5.4-.55-6.5-.5-1-1.7-1.05-3.75-1.25-.3-.05-.35-.1-.35-.65,0-.6.1-.7.45-.7,2.2.1,4.85.2,7.1.2s4.7-.1,6.85-.2c.45,0,.55.1.55.65,0,.6-.1.65-.6.7-1.9.2-2.55.25-3.15,1.25-.65,1.3-.75,3.35-.75,6.5v7.75c1.55-1.35,2.5-2.25,3.75-3.6l5.6-5.85c3.15-3.25,3.4-4.15,3.15-5.15-.2-.65-1.3-.75-2.25-.85-.35-.05-.45-.05-.45-.7,0-.5.1-.6.45-.6,1.85.1,3.95.1,5.8.1,1.75,0,4.15-.1,6.05-.2.35,0,.4.1.4.65,0,.6-.1.65-.4.7-1.2.15-2.8.7-4.35,1.7-1.45.95-3,1.75-6.2,4.95l-4.75,4.75c-.8.8-1.1,1.1-2,1.95,3,3.7,6.85,8.55,11.95,14.85,2.15,2.7,3.15,3.85,4.6,4.75.9.6,1.85.75,3.25.9.3.05.35.15.35.65s-.05.6-.4.6c-1.9-.1-3.3-.15-4.85-.15-1.7,0-3.85,0-5.35.05-1.25-1.85-2.4-3.45-3.95-5.45-3.7-4.8-7.3-9.55-10.4-13.5v9.85Z"/><path class="cls-6" d="M129.2,114.98c0,5.12-.08,6.16.72,8,.72,1.76,2.88,1.84,5.76,2.08.48,0,.56.16.56,1.04,0,.96-.16,1.04-.64,1.04-3.28-.16-6.96-.32-10.32-.32s-7.44.16-10.8.32c-.56,0-.72,0-.72-1.04,0-.88.16-.96.72-1.04,2.56-.24,4.8-.4,5.44-1.76.8-1.68,1.04-3.76,1.04-8.16v-3.6h-12.64c-3.04,0-5.28.08-7.6.08-.72,0-1.04-.24-1.04-2.08s.16-1.92.88-3.28c7.52-13.2,13.36-23.28,21.44-35.92l7.12-1.92c.4,0,.64.16.64.96-.16,6.32-.16,12.88-.4,20.4l-.16,18.72c2.16,0,5.28-.16,8.08-.4.4,0,.56.16.48.56l-.72,2.4c-.16.48-.24.56-.72.56-2.32-.16-5.44-.16-7.12-.16v3.52ZM121.12,91.22c.08-6,.16-9.44.48-14.88-6.24,9.92-12.64,20.56-18.24,30.96-.48.88-.4,1.28.64,1.28h16.96l.16-17.36Z"/><path class="cls-5" d="M183.41,97.55c4,0,6.6.8,9.5,3.05,3.25,2.55,4.6,5.3,4.6,9.75,0,5.25-3,8.7-6.35,10.8-3.1,1.95-5.8,2.95-8.85,3.7-3.7.9-8.85,1.6-12.05,1.55-.8,0-1.2-.25-1.2-.6,0-.3.25-.5,1.1-.6,5-.6,9.3-1.95,13.45-4.2,5.4-2.95,9.1-7.6,9.1-12.3,0-2.95-.85-4.7-2.45-6.3-1.6-1.6-3.9-2.55-7.25-2.55-4.05,0-8.6,2.45-14.35,6.85-2.65,2-3.2,2.75-3.75,3.45-.8,1-1.35,1.2-2.3,1.2-1.5,0-3.55-1.35-4.8-2.95-1-1.25-1.45-2-1.45-2.95,0-.85.2-1.45.5-1.45.15,0,.35.1.75.45,1.1.9,1.8,1.45,2.8,1.45.35,0,.95-.1,1.5-.35.45-.2,1.3-.55,2.7-1.25,4.1-2.05,6.85-3.3,8.25-3.9,3.8-1.75,7.5-2.85,10.55-2.85Z"/><path class="cls-2" d="M228.91,100.7c0,1.2-.45,3.3-1.1,5.3-.65,2.1-1.7,4.7-3.15,7.2-1.55,2.9-3.55,6.25-5.55,8.35-1.1,1.2-2.4,2.05-4.15,2.05-1.25,0-2.65-.6-3.8-1.95-1.8-2-2.75-4.55-2.75-9.1,0-2.45.8-5.35,2.15-7.6,1.75-3.1,4-5.25,6.75-7,3.4-2.1,7.35-3.25,12.1-3.25,5.45,0,9.35,1.5,12.4,3.9,3.65,2.95,5.85,6.95,5.85,12.7,0,4.3-1.85,7.85-4.6,10.3-2.55,2.25-4.7,3.45-7.4,4.45-3.2,1.15-7.1,1.8-10.25,1.9-.75,0-1.1-.1-1.1-.5s.3-.5.95-.65c5.9-1.3,9.85-3.55,12.85-6.55,3.1-3.2,4.5-6.35,4.5-11.6,0-3.55-1.15-7.15-4.4-9.4-2.55-1.8-5.4-2.5-8-2.7-.75-.05-2.25-.05-3.15.05.95,1.05,1.85,2.7,1.85,4.1ZM216.76,100.9c-2.25,2-3.4,4-4.25,6.15-.5,1.25-.85,2.9-.85,4.75,0,2.1.3,3.85,1.25,5.4.65,1,1.55,1.65,2.2,1.65.8,0,1.55-.5,3.45-3.2,2.8-3.9,5.5-9.05,6.7-12.25.7-1.75,1.05-3.05,1.05-4.25s-.35-1.85-.9-2.25c-3.8.55-6.9,2.4-8.65,4Z"/><path class="cls-3" d="M293.46,95.1c2.05-2.4,2.45-2.7,2.85-2.7.5,0,.9.3,3.85,2.9,1.4,1.3,1.55,1.7,1.55,2.1,0,.7-.4,1.15-1.95,1.05-1.35-.1-1.55-.05-2.5.75-1.55,1.35-2.6,2-4.4,3-.2.1-.55-.1-.45-.35.65-1.8,1.05-2.95,1.6-5.6h-30.9c.2,3.95-1.35,6.65-3.95,6.65-1.5,0-2.55-1.1-2.55-2.65,0-1.15.4-1.8,1.6-2.4,2.6-1.35,3.3-2.35,3.65-5.55.05-.25.5-.3.55-.05.3,1,.5,1.95.6,2.85h12.8v-3.25c0-1.7-.05-3.05-.15-4.15,6.2.6,6.75,1.2,6.75,1.75,0,.45-.55.9-1.65,1.4v4.25h12.7ZM290.42,108.55c-1.3,4.5-3.15,8.9-6.15,12.55,7.8,2.85,11.2,5.65,11.2,8.3,0,1.6-.85,2.7-2.1,2.7-1.35,0-1.45-.05-3.85-2.3-2.35-2.2-4.9-4.2-7.8-6.05-5.5,4.95-13.4,7.5-24.55,8.2-.25,0-.25-.65,0-.7,9.55-1.85,16.25-4.85,20.95-9.6-2.75-1.4-5.6-2.7-8.55-3.8-.4.65-.85,1.3-1.3,2-.65.8-1.1,1-1.8,1-1.5,0-3.05-.85-3.05-1.7,0-.25.1-.55.35-1,2.35-3.15,4.35-6.35,6-9.6h-9c-.9,0-1.85.1-3.05.3l-.55-1.85c1.4.3,2.5.4,3.55.4h9.65l.65-1.35c1.3-2.75,2.3-5.5,3.05-8.2,5.6,1.35,5.9,1.5,5.9,2.15,0,.6-.3.75-2.05,1.15-.75,2.1-1.65,4.2-2.6,6.25h16.95c2.7-3.1,3.3-3.5,3.65-3.5.45,0,1,.4,3.4,2.4,1.1.95,1.5,1.4,1.5,1.75s-.15.5-.65.5h-9.75ZM274.81,108.55c-1.4,2.9-3,5.7-4.7,8.45,3.3.85,6.55,1.65,9.8,2.6,2.55-3.25,4.2-7.1,5.25-11.05h-10.35Z"/><path class="cls-4" d="M314.56,112.75c0,5.05-1.75,9.15-5.1,9.15-1.6,0-2.7-1.2-2.7-2.9,0-1.3.35-1.95,1.45-2.85,2.85-2.15,4.2-4.7,4.95-9.3.05-.25.6-.3.65-.05.5,2,.75,4.05.75,5.95ZM324.26,123.5c0,2.9.35,3.05,6.8,3.05,2.9,0,4.55,0,5.65-.75,1.45-1,2.1-3.2,3.45-8.25.05-.25.7-.2.7.05,0,1.9-.05,4.75-.05,5.75,0,1.35.25,1.5,1.55,2.15.45.25.8.75.8,1.4,0,1.45-.85,2.45-2.7,3.1-2.05.7-5.7,1-10.95,1-8.15,0-10.25-1.25-10.25-6.3,0-1.8.15-3.6.15-10.85,0-5.05-.05-10.1-.25-15.2,6.35.8,6.9.9,6.9,1.7,0,.6-.55,1.15-1.8,1.6v21.55ZM332.66,98.25q-1.3,0-3.95-3.35c-1.85-2.35-4.1-4.25-6.45-5.55-.2-.1-.1-.7.15-.7,8.2.65,12.8,3.1,12.8,6.75,0,1.6-1.05,2.85-2.55,2.85ZM348.67,121.05c-1.65,0-2.35-.75-3.05-5.15-.5-3.25-2-6.75-3.85-9.3-.15-.2.35-.6.55-.5,5.8,3.25,9.35,7.5,9.35,11.35,0,2.1-1.25,3.6-3,3.6Z"/><path class="cls-9" d="M433.23,120.36c-.16-.23-.52-.49-.94-.64-.1-.04-.21-.08-.3-.1-.08-.02-.16-.04-.24-.06-.16-.04-.31-.08-.45-.13-.28-.1-.49-.24-.56-.43-.5.13-1.1.03-1.69-.07-.3-.05-.59-.11-.85-.17-.26-.06-.5-.08-.67-.11-.29-.03-.6.05-.84.03-.39-.02-.77-.08-1.18-.12-.21-.01-.42-.03-.63-.05-.11,0-.21-.01-.32-.02-.11,0-.23,0-.34,0-1.06,0-2.25.17-3.43.45-1.18.27-2.36.67-3.43,1.09-1.08.43-1.89.89-2.64,1.41-.62.43-1.22.81-1.83,1.24-.61.42-1.22.87-1.82,1.41-.05.05-.1.1-.15.14-.14.01-.28.02-.42.03-.46.03-.97.2-1.41.19-.32,0-.56-.17-.84-.23-.59-.11-1.16-.13-1.72-.15-.48-.03-.94-.1-1.39-.17-.46-.07-.91-.14-1.37-.2-.48-.06-1.04-.04-1.55-.1-.51-.06-.94-.23-1.19-.62-.25.09-.49.18-.75.31-.11-.12-.27-.18-.45-.17.46-.22.92-.44,1.39-.68,4.49-2.18,9.31-5.14,12.73-7.92.26.24,1.34-.34,1.54.05.26-.21.62-.31.97-.38.35-.07.68-.1.87-.15.16-.04.33-.17.46-.2.42-.1.85-.09,1.32-.2,1.11-.25,2.33-.69,3.29-.89.48-.1.84-.21,1.21-.38.58-.27,1.07-.22,1.64-.36.03.03.07.05.1.08.19.15.38.3.53.47.15.18.32.33.41.57.27.05.61.14.94.27.16.08.36.1.54.16.19.05.37.11.57.11.19.02.38.03.56.05.18,0,.37-.01.54-.02.34-.01.68-.12.99-.27.09.02.18.04.28.04.1,0,.2-.02.3-.04.2-.04.4-.09.6-.17.2-.09.4-.19.59-.29.1-.05.19-.1.29-.14.09-.05.19-.11.28-.15.23-.12.45-.17.69-.3.74-.44,1.49-.97,2.21-1.5,2.19-1.59,3.87-2.92,5.35-4.48,1.74-1.88,2.73-3.43,3.72-5.05.32-.54.66-1.03.84-1.42.09-.2.15-.37.15-.51,0,0,0,0,0-.01.04-.08.07-.12.07-.12-.07,0-.14.01-.21.02.23-.09.44-.19.57-.32.14-.15.05-.27-.22-.38-.26-.11-.72-.16-1.19-.09-.11.01-.24.03-.34.05-.09.02-.17.04-.26.06-.17.04-.34.07-.5.09-.31.04-.58.02-.73-.1-.43.31-1.06.49-1.69.66-.31.09-.62.16-.9.22-.28.06-.52.14-.71.19-.29.1-.57.28-.81.37-.39.15-.79.25-1.21.38-.21.07-.42.15-.64.22-.11.04-.22.08-.32.11-.11.05-.22.1-.33.14-1.04.43-2.13,1.04-3.18,1.72-1.04.68-2.04,1.46-2.91,2.21-.88.76-1.48,1.45-1.99,2.16-.42.59-.86,1.13-1.27,1.7-.42.57-.83,1.17-1.18,1.83-.03.06-.06.12-.09.17-.13.06-.27.12-.4.18-.44.2-.87.52-1.31.67-.31.11-.62.06-.93.12-.62.12-1.2.32-1.75.5-.48.15-.96.25-1.44.36-.48.1-.96.2-1.44.31-.5.12-1.04.33-1.57.45-.51.12-1,.13-1.4-.09.19-.17.37-.33.55-.49,1.01-.89,1.95-1.87,2.85-2.87.45-.5.9-1,1.34-1.5.22-.25.44-.5.65-.75.21-.25.42-.51.63-.76.99-1.2,1.95-2.39,2.86-3.62.78-1.08,1.53-2.19,2.25-3.34.39-.04,1.1-.72,1.4-.47.18-.27.49-.48.8-.65.31-.18.62-.31.79-.42.14-.08.26-.26.38-.32.37-.23.79-.36,1.21-.61.99-.59,2.01-1.39,2.87-1.89.43-.25.74-.47,1.04-.74.46-.44.96-.57,1.46-.88.04.01.09.02.13.04.24.06.47.13.69.23.21.1.43.18.61.35.28-.05.64-.09,1.01-.09.18.01.39-.04.58-.05.2-.03.39-.04.59-.1.2-.05.38-.11.56-.16.18-.06.35-.14.51-.21.33-.14.62-.35.86-.59.1-.01.19-.03.29-.07.09-.04.18-.09.28-.14.18-.11.35-.23.52-.37.16-.15.32-.31.47-.46.08-.08.15-.15.22-.23.07-.08.14-.16.22-.24.18-.19.38-.31.56-.52.56-.65,1.09-1.39,1.59-2.12,1.54-2.19,2.68-3.98,3.55-5.9,1-2.29,1.41-4.03,1.79-5.83.12-.59.27-1.15.31-1.57.02-.21.01-.38-.04-.5,0,0,0,0,0-.01.02-.09.02-.13.02-.13-.06.03-.13.07-.19.1.19-.17.36-.34.43-.5.08-.18-.05-.25-.34-.24-.29,0-.74.14-1.17.38-.1.06-.22.12-.31.18-.08.05-.15.1-.23.15-.15.1-.3.19-.45.27-.29.16-.55.24-.73.19-.3.44-.85.84-1.39,1.22-.27.19-.54.38-.79.53-.24.16-.45.32-.61.43-.25.19-.45.46-.65.63-.32.27-.67.51-1.03.78-.18.14-.35.28-.54.42-.09.07-.18.15-.27.22-.09.08-.18.16-.27.25-.85.76-1.69,1.69-2.46,2.66-.77.97-1.46,2.01-2.04,2.98-.58.98-.92,1.79-1.17,2.59-.2.66-.43,1.29-.63,1.94-.2.65-.39,1.31-.49,2.01,0,.06-.01.12-.02.18-.11.1-.22.2-.32.3-.35.32-.65.75-1.03,1.04-.26.2-.58.27-.85.42-.56.32-1.05.69-1.52,1.03-.41.29-.84.55-1.27.8-.43.25-.86.5-1.28.75-.44.27-.89.64-1.35.92-.43.26-.88.42-1.33.38,1.27-2.27,2.41-4.7,3.38-7.01.58-1.32,1.12-2.66,1.62-4.01.5-1.35.97-2.7,1.33-4.05.19-.67.36-1.35.52-2.02.25-.24.51-.5.72-.38.09-.29.31-.54.54-.75.23-.22.47-.4.6-.53.1-.1.16-.28.25-.37.28-.27.62-.47.93-.77.74-.71,1.45-1.62,2.09-2.23.33-.3.55-.56.74-.86.3-.47.71-.67,1.09-1.03.04,0,.07,0,.11,0,.23,0,.45.02.67.06.21.05.42.07.62.2.24-.11.55-.22.88-.29.17-.03.34-.11.51-.16.17-.06.34-.11.5-.21.16-.09.32-.17.46-.25.15-.09.28-.19.41-.29.26-.18.47-.43.63-.69.08-.03.17-.06.24-.11.07-.05.15-.11.21-.17.14-.13.27-.27.38-.42.22-.34.42-.67.59-1,.11-.2.27-.34.38-.56.35-.68.65-1.43.93-2.16.88-2.21,1.52-3.98,1.88-5.83.4-2.2.39-3.8.34-5.45-.02-.54,0-1.06-.06-1.43-.03-.19-.07-.34-.15-.43,0,0,0,0,0,0,0-.08,0-.12,0-.12-.05.04-.1.08-.15.12.14-.19.25-.38.29-.56.04-.19-.09-.24-.36-.19-.26.05-.66.26-1,.55-.08.07-.18.15-.24.22-.06.06-.12.12-.17.18-.12.12-.23.23-.34.32-.22.19-.44.31-.62.29-.17.46-.57.92-.97,1.36-.4.44-.82.84-1.04,1.11-.18.22-.3.5-.45.69-.23.3-.49.58-.75.88-.13.16-.26.31-.39.47-.13.16-.26.33-.39.51-.6.83-1.15,1.81-1.62,2.82-.47,1.01-.86,2.05-1.16,3.02-.31.98-.42,1.76-.46,2.51-.03.62-.09,1.22-.12,1.83-.03.61-.05,1.23.02,1.87,0,.04.01.08.02.13-.07.1-.14.2-.2.3-.24.36-.4.8-.66,1.12-.19.23-.46.34-.67.53-.43.39-.77.8-1.1,1.2-.6.67-1.27,1.24-1.89,1.87-.32.33-.63.75-.97,1.09-.24.24-.49.42-.78.52.97-4.61,1.33-9.09,1.29-13.17-.02-2.25-.22-4.38-.47-6.56.02.1.07.2.15.3.47.56.62-.86,1.1-.7-.01-.28.11-.54.25-.77.14-.23.3-.44.38-.57.06-.11.06-.28.11-.37.17-.29.41-.52.6-.85.45-.75.82-1.69,1.23-2.32.21-.32.34-.58.42-.88.13-.46.44-.69.68-1.06.02,0,.05-.01.07-.02.2-.04.39-.09.58-.09.19,0,.38-.02.59.06.18-.15.42-.32.68-.45.14-.06.26-.16.4-.24.13-.09.27-.16.38-.28.12-.11.23-.21.34-.31.1-.1.19-.22.28-.33.18-.21.3-.46.37-.73.07-.04.13-.08.19-.13.05-.06.1-.12.15-.19.09-.13.16-.28.22-.44.1-.33.19-.66.26-.97.05-.19.15-.34.19-.54.13-.65.21-1.34.28-2.01.23-2.03.41-3.63.32-5.26-.14-1.93-.52-3.28-.93-4.66-.14-.45-.23-.89-.37-1.2-.07-.15-.14-.27-.24-.33,0,0,0,0,0,0-.02-.06-.03-.1-.03-.1-.03.04-.07.09-.1.13.07-.2.14-.4.13-.58,0-.19-.14-.23-.36-.14-.23.08-.54.34-.77.67-.06.08-.12.17-.16.24-.04.06-.07.12-.11.19-.07.12-.15.24-.22.34-.15.2-.31.34-.48.34-.03.44-.27.92-.51,1.37-.24.46-.52.87-.65,1.15-.1.22-.13.49-.22.68-.13.3-.29.59-.45.89-.14.32-.32.62-.45.99-.32.82-.57,1.77-.74,2.72-.17.95-.26,1.92-.3,2.8-.04.89.04,1.58.19,2.22.13.53.21,1.05.32,1.57.11.52.24,1.06.45,1.58,0,.02.02.04.02.05-.03.09-.06.18-.08.27-.11.35-.13.77-.27,1.1-.1.23-.32.37-.45.57-.27.41-.46.83-.64,1.24-.34.7-.77,1.31-1.14,1.97-.19.35-.34.77-.54,1.14-.2.36-.47.64-.87.72,0,.21.01.43.05.65-.18.06-.29.23-.29.42-.07-.62-.15-1.24-.23-1.87-.27-2.05-.52-4.23-.95-6.24-.66-3.15-1.53-6-2.52-8.67.21-.15.15-.87.52-.8-.17-.48.15-.99.22-1.25.03-.1-.02-.25,0-.34.08-.27.24-.5.34-.8.22-.7.32-1.55.55-2.14.12-.3.17-.54.18-.8,0-.4.24-.63.37-.95,0,0,.02,0,.03-.01.16-.07.31-.14.47-.18.16-.03.32-.07.52-.03.12-.17.28-.36.48-.51.1-.07.19-.18.29-.27.09-.1.19-.18.27-.3.08-.11.15-.21.22-.32.07-.11.12-.22.17-.32.11-.21.15-.44.15-.68.11-.08.18-.19.23-.31.05-.12.09-.26.1-.4.02-.29.02-.58.02-.86,0-.17.07-.3.06-.48-.02-.56-.1-1.15-.16-1.71-.19-1.7-.29-3.05-.66-4.38-.46-1.57-1.02-2.62-1.61-3.7-.2-.35-.35-.7-.52-.93-.09-.11-.17-.2-.27-.23,0,0,0,0,0,0-.03-.05-.04-.08-.04-.08-.02.04-.04.08-.06.13.03-.19.04-.39,0-.57-.04-.19-.17-.22-.36-.11-.19.1-.43.37-.58.7-.04.08-.08.17-.1.24-.02.06-.04.12-.06.17-.04.11-.08.22-.13.32-.09.19-.21.33-.37.34.07.39-.03.83-.16,1.25-.12.42-.28.81-.34,1.06-.05.2-.01.44-.05.61-.05.27-.14.54-.22.82-.07.29-.16.57-.2.89-.12.74-.15,1.57-.11,2.4.04.83.15,1.64.27,2.38.13.75.33,1.31.59,1.82.21.42.38.84.57,1.26.19.42.39.84.67,1.24,0,.06,0,.13-.01.2-.02.31.07.67.02.97-.04.21-.21.35-.29.53-.16.38-.22.76-.29,1.14-.14.64-.38,1.21-.55,1.83-.16.61-.1,1.47-.71,1.74-.14-.34-.27-.68-.41-1.02-1.69-4.08-3.73-8.07-6.12-11.86.53.07-.09-.83.34-.92-.33-.35-.24-.89-.28-1.13-.01-.1-.11-.21-.12-.29-.03-.26.02-.51,0-.79-.07-.67-.29-1.42-.31-1.99,0-.29-.05-.51-.14-.74-.13-.33-.03-.6-.02-.9,0,0,0,0,0,0,.09-.12.18-.24.29-.33.11-.09.22-.18.39-.2.02-.41.29-.84.38-1.33.02-.12.04-.24.06-.35.01-.12.01-.23.02-.34,0-.22-.04-.44-.14-.64.06-.1.08-.22.08-.35,0-.12-.02-.25-.06-.38-.09-.26-.2-.5-.29-.73-.06-.14-.05-.28-.12-.43-.21-.47-.48-.93-.72-1.38-.72-1.36-1.23-2.48-1.94-3.48-.86-1.17-1.64-1.85-2.43-2.54-.26-.23-.49-.47-.69-.6-.1-.06-.2-.1-.28-.08,0,0,0,0,0,0-.03-.03-.06-.05-.06-.05,0,.03,0,.05,0,.07,0,0,0,.01,0,.02,0,.01,0,.02,0,.04-.06-.19-.12-.38-.22-.54-.11-.17-.22-.16-.34,0-.12.16-.2.5-.19.85,0,.08,0,.18.01.25,0,.06.01.11.02.17.01.11.02.22.02.32,0,.2-.05.36-.17.42.21.32.29.74.35,1.14.06.41.07.79.11,1.03.03.19.16.39.19.55.05.25.08.51.11.77.05.27.07.54.15.83.16.68.42,1.4.72,2.09.3.69.65,1.34.99,1.93.34.59.68.99,1.04,1.33.3.27.56.57.84.86.26.27.54.55.86.78.02.05.03.09.05.14.09.27.3.54.36.81.04.19-.06.37-.06.55,0,.37.08.72.16,1.05.12.58.11,1.15.2,1.73.09.54.42,1.19.1,1.63-.85-1.29-1.73-2.55-2.66-3.77-.79-1.05-1.64-2.1-2.52-3.13,0-.03,0-.05,0-.09,0-.46-.26-.43-.5-.49-1.36-1.58-2.81-3.13-4.31-4.66,0,0,0,0,.01,0,.73.14-.1-.53.36-.57-.38-.24-.33-.59-.39-.74-.02-.06-.13-.14-.15-.19-.05-.17-.01-.32-.06-.51-.11-.43-.38-.91-.41-1.28-.01-.18-.06-.33-.16-.47-.12-.17-.06-.32-.04-.47.1-.17.21-.32.49-.33-.07-.32.11-.6.14-.93.01-.17.03-.31,0-.47-.01-.15-.07-.29-.18-.43.12-.13.08-.3,0-.47-.09-.17-.2-.33-.29-.47-.05-.09-.04-.18-.1-.27-.19-.29-.42-.58-.61-.86-.57-.84-.88-1.57-1.39-2.21-.62-.74-1.2-1.15-1.78-1.57-.19-.14-.35-.3-.5-.37-.08-.04-.15-.05-.23-.02,0,0,0,0,0,0-.02-.02-.04-.03-.04-.03,0,.02,0,.03,0,.05,0,0,0,0,0,0,0,0,0,0,0,0,0,0,0,.02,0,.02,0,0,0,.01,0,.02-.01-.02-.02-.03,0-.04-.06-.14-.13-.3-.23-.45-.22-.35-.38-.09-.44.32-.06.41.03.88-.24.98.22.23.33.51.38.77.05.26.05.51.11.67.04.12.17.26.2.36.05.16.06.32.09.5.04.17.08.35.13.54.04.11.07.22.11.33.05.11.11.23.16.34.11.23.21.45.36.68.14.22.25.44.4.65.14.21.26.41.41.6.13.19.26.36.41.49.14.14.27.26.42.35.12.08.23.17.33.27.11.09.21.19.32.29.11.1.22.19.33.29.06.05.13.1.2.15,0,0,0,0,0,.01.1.17.32.34.38.51.04.12-.06.23-.05.35,0,.24.1.45.19.67.15.37.16.73.29,1.1.12.33.5.75.26,1.02-2-2.01-4.07-3.99-6.15-5.96-.01-.06-.02-.12-.03-.18-.03-.16-.06-.33-.06-.48,0-.15,0-.3.09-.43-.27-.37-.4-.92-.68-1.41-.07-.12-.14-.24-.21-.35-.07-.11-.15-.21-.22-.31-.14-.19-.32-.35-.51-.47-.07-.27-.27-.47-.48-.65-.22-.17-.45-.31-.66-.45-.13-.09-.22-.21-.35-.3-.43-.27-.89-.51-1.32-.75-1.3-.74-2.33-1.42-3.39-1.86-1.25-.5-2.12-.63-3.01-.76-.29-.04-.58-.13-.77-.12-.1,0-.17.03-.2.1,0,0,0,0,0,0-.04,0-.06-.01-.06-.01.03.04.06.08.09.12-.16-.14-.34-.27-.51-.36-.19-.09-.25-.02-.2.2.05.21.24.58.5.89.06.08.13.16.19.22.04.05.09.09.13.14.08.09.16.18.23.27.13.18.22.34.19.48.34.16.67.48.97.8.3.33.57.66.75.84.15.15.35.25.47.37.2.19.38.4.57.62.2.21.39.44.63.65.53.5,1.14.98,1.76,1.4.62.42,1.23.78,1.8,1.09.57.31,1.02.45,1.44.52.35.05.68.15,1.03.23.21.05.42.1.64.13.08.07.17.14.25.21.96.81,1.75,1.55,2.2,2.09,1.2.89,3.01,2.47,4.65,4.15,1.67,1.65,3.17,3.39,4.04,4.39,0,0,.02.02.02.03-.05.01-.09.03-.13.02-.2-.06-.41-.21-.64-.3-.53-.21-1.12-.3-1.57-.58-.23-.14-.4-.2-.58-.22-.24-.04-.44-.26-.65-.43-.03-.08-.06-.16-.09-.23-.22-.49-.58-.9-.88-1.32-.21-.3-.37-.68-.64-.98-.53-.61-1.16-1.01-1.74-1.29-.51-.25-1.03-.47-1.54-.63-.26-.09-.51-.15-.77-.21-.25-.05-.5-.1-.75-.12-.25-.02-.51-.02-.76,0-.25.02-.49.03-.74.05-.25,0-.5.01-.76-.02-.26-.04-.53-.1-.82-.21-.11.14-.21.28-.28.46-.24-.06-.5,0-.57.07-.02.02-.03.04-.03.06-.04,0-.08,0-.11.02,0,0,.02.02.04.04-.02,0-.04,0-.06.01-.02,0-.08-.02-.11-.05-.08-.06-.14-.14-.23-.11,0,.07.02.17.07.25.01.02.03.04.04.06,0,0,.01.02.02.02,0,0,0,0,0,0,0,0,0,0,0,.01,0,.01,0,.03.01.04,0,.03.02.05.03.08.02.05.04.1.07.15.06.1.13.18.2.26.15.16.33.31.48.47.35.37.74.62,1.18.97.69.54,1.34,1.43,1.91,1.86.33.25.75.36,1.1.56.41.24.81.53,1.28.71.45.18.93.21,1.37.31.43.11.91.28,1.35.27.7-.03,1.28-.29,1.69-.6.02-.02.04-.03.07-.05.13,0,.26,0,.39.06.15.07.29.26.44.35.3.19.59.28.86.37.48.14.94.43,1.42.57.5.15,1.06-.01,1.5.72.04-.04.08-.08.12-.12.26.28.5.56.73.84,1.77,2.19,3.47,4.65,5.14,7.27,1.06,1.67,2.08,3.4,3.02,5.17-.31.17-.78-.14-1-.22-.09-.03-.19.03-.27,0-.24-.09-.49-.27-.76-.39-.63-.28-1.35-.44-1.88-.78-.27-.17-.48-.25-.69-.3-.33-.08-.59-.4-.89-.61-.03-.12-.06-.23-.09-.34-.2-.64-.57-1.17-.89-1.72-.23-.39-.41-.87-.71-1.23-.59-.77-1.31-1.26-1.98-1.61-.59-.31-1.19-.58-1.8-.76-.3-.11-.6-.16-.9-.24-.3-.05-.6-.11-.89-.12-.3-.02-.61-.02-.91,0-.15.01-.3.02-.45.03-.15.02-.3.03-.45.04-.3.02-.6.04-.91.02-.31-.02-.62-.06-.95-.15-.16.15-.31.3-.42.49-.27-.04-.57.03-.69.12-.03.02-.05.05-.06.07-.05,0-.09.02-.14.03,0,0,.02.02.04.05-.02,0-.04,0-.06,0-.02,0-.07-.02-.11-.05-.07-.06-.12-.13-.2-.11-.01.07,0,.17.05.25.01.02.02.04.03.06,0,0,.01.02.02.02,0,0,0,0,0,0,0,0,0,0,0,.01,0,.02,0,.03.01.05,0,.03.02.06.03.09.02.06.05.12.08.18.06.11.14.22.23.32.17.2.37.38.53.57.39.45.81.77,1.31,1.21.77.69,1.51,1.73,2.15,2.26.37.31.85.47,1.25.72.47.31.93.64,1.46.87.51.23,1.09.3,1.61.42.51.13,1.07.31,1.59.29.84-.06,1.57-.39,2.1-.79.02-.02.04-.03.07-.05.21.03.43.03.63.13.18.09.34.31.52.42.36.23.7.36,1.02.49.58.2,1.13.56,1.7.75.6.21,1.29.1,1.79.92.12-.09.24-.18.35-.31.06.08.12.13.18.16,2.24,4.37,3.98,8.9,5.05,12.95.26.97.47,1.86.67,2.7-.08-.07-.13-.17-.15-.3-.19.09-.42,0-.63-.12-.21-.13-.4-.29-.52-.36-.1-.06-.22-.02-.3-.07-.25-.16-.49-.4-.77-.6-.65-.46-1.41-.81-1.94-1.3-.27-.24-.48-.38-.71-.48-.37-.18-.59-.61-.92-.9,0,0,0,0,0,0,0-.15,0-.3-.02-.44-.06-.75-.32-1.43-.55-2.11-.16-.49-.27-1.05-.52-1.52-.49-.97-1.17-1.65-1.84-2.18-.59-.46-1.21-.87-1.85-1.18-.32-.17-.64-.29-.96-.43-.33-.11-.65-.23-.97-.3-.34-.08-.69-.14-1.03-.16-.17-.02-.35-.03-.52-.05-.17-.01-.35-.02-.52-.03-.17-.01-.35-.04-.52-.06-.17-.02-.35-.04-.52-.07-.35-.07-.69-.16-1.04-.29-.22.12-.42.24-.6.4-.29-.08-.64-.05-.8.02-.05.02-.08.04-.1.05-.05,0-.11,0-.16,0,0,0,.01.02.04.06-.02,0-.04,0-.06,0-.03,0-.07-.03-.09-.07-.06-.07-.09-.14-.18-.13-.02.06-.03.16,0,.25,0,.02.01.04.02.06,0,0,0,.02.01.03,0,0,0,0,0,0,0,0,0,0,0,.01,0,.02,0,.04,0,.05,0,.04.01.07.02.11.02.07.03.14.06.21.05.13.11.26.19.39.15.25.32.49.46.73.33.57.73,1,1.18,1.58.7.91,1.31,2.17,1.9,2.88.35.41.82.7,1.21,1.06.45.43.89.89,1.43,1.25.52.35,1.15.56,1.7.8.54.25,1.12.53,1.71.61.95.1,1.86-.12,2.56-.47.03-.02.06-.03.1-.05.25.11.51.16.73.32.18.13.32.4.49.56.35.33.7.55,1.04.77.6.35,1.14.87,1.74,1.22.31.18.67.3.99.49.32.19.62.44.82.92.15-.05.31-.12.46-.22.05.1.11.17.18.21.29,1.34.53,2.57.74,3.78.34,1.88.51,3.72.59,5.58.09,1.86.08,3.73.03,5.71-.03,1.31-.07,2.66-.16,4-.11-.11-.18-.25-.17-.43-.22.04-.45-.1-.65-.28-.2-.18-.37-.4-.48-.5-.09-.08-.23-.08-.31-.15-.24-.23-.45-.54-.71-.81-.61-.64-1.35-1.19-1.82-1.83-.24-.32-.45-.51-.67-.68-.37-.28-.52-.77-.82-1.16-.01-.01-.02-.02-.03-.04.04-.18.07-.35.1-.52.12-.84.02-1.63-.06-2.43-.05-.57-.06-1.21-.22-1.76-.07-.29-.18-.55-.28-.81-.12-.25-.22-.5-.36-.72-.13-.22-.26-.44-.41-.63-.07-.1-.15-.2-.22-.29-.08-.09-.15-.18-.23-.27-.54-.61-1.13-1.16-1.76-1.61-.08-.06-.16-.12-.23-.17-.08-.05-.16-.1-.24-.16-.16-.1-.32-.2-.49-.3-.33-.17-.67-.36-1.01-.49-.36-.14-.73-.27-1.1-.36-.19-.05-.38-.1-.57-.15-.19-.04-.38-.08-.57-.13-.19-.05-.38-.1-.56-.15-.19-.05-.37-.1-.56-.16-.18-.06-.37-.14-.55-.21-.18-.07-.36-.16-.54-.25-.27.08-.52.16-.76.28-.3-.13-.69-.15-.89-.12-.06,0-.1.02-.13.03-.06,0-.12-.01-.18-.02,0,0,0,.03.03.07-.02,0-.04-.01-.06-.02-.03,0-.06-.04-.08-.08-.04-.08-.06-.15-.15-.15-.04.06-.06.15-.05.24,0,.02,0,.04,0,.06,0,0,0,.02,0,.03,0,0,0,0,0,0,0,0,0,0,0,.01,0,.02,0,.04,0,.06,0,.04,0,.08,0,.12,0,.08.01.15.02.23.02.15.07.3.12.45.1.29.24.58.34.87.24.67.56,1.22.91,1.93.28.56.51,1.2.74,1.82.22.62.46,1.21.69,1.65.28.51.72.93,1.06,1.39.4.56.77,1.13,1.28,1.64.48.49,1.12.85,1.67,1.22.54.38,1.11.78,1.74.97,1.03.29,2.08.21,2.94-.03.04-.01.09-.02.13-.04.25.19.54.31.76.55.17.19.27.49.42.7.31.43.65.74.96,1.05.58.51,1.05,1.19,1.62,1.69.3.27.65.48.96.75.31.28.58.61.69,1.16.17-.02.35-.04.53-.11.02.07.05.12.08.17-.05.56-.11,1.12-.19,1.66-.11.72-.25,1.42-.43,2.09-.07.98-.25,2.26-.55,3.64-.3,1.38-.67,2.85-1.06,4.23-.71,2.39-1.45,4.4-2.04,6.09-.2-.31-.56-.59-.43-.99-.23-.02-.44-.22-.6-.46-.16-.24-.29-.51-.38-.65-.07-.11-.22-.14-.28-.24-.19-.3-.34-.67-.54-1.03-.47-.82-1.11-1.59-1.45-2.37-.17-.39-.34-.64-.53-.87-.31-.38-.36-.94-.58-1.41-.01-.03-.03-.05-.04-.08.1-.19.18-.37.25-.55.35-.86.46-1.72.58-2.59.09-.61.24-1.29.21-1.91,0-.32-.05-.62-.09-.92-.06-.29-.11-.58-.2-.84-.08-.26-.17-.52-.28-.76-.05-.12-.11-.24-.16-.35-.06-.11-.12-.22-.18-.33-.42-.76-.91-1.47-1.47-2.08-.07-.08-.14-.16-.21-.23-.07-.07-.15-.14-.22-.22-.15-.14-.29-.28-.44-.42-.31-.25-.62-.52-.95-.73-.35-.23-.7-.45-1.08-.62-.19-.09-.37-.19-.56-.28-.19-.09-.38-.17-.57-.26-.19-.09-.38-.19-.56-.28-.19-.09-.37-.19-.56-.29-.18-.1-.36-.22-.54-.33-.18-.11-.35-.23-.52-.37-.3.02-.59.03-.87.1-.29-.19-.69-.3-.92-.31-.06,0-.11,0-.15,0-.06-.02-.12-.04-.19-.06,0,0,0,.03,0,.08-.02-.01-.04-.02-.06-.03-.02,0-.05-.06-.06-.1-.02-.08-.02-.16-.11-.18-.05.05-.09.14-.1.22,0,.02,0,.04,0,.06,0,0,0,.02,0,.03,0,0,0,0,0,0,0,0,0,0,0,.01,0,.02-.01.04-.02.06-.01.04-.02.08-.03.12-.01.08-.02.16-.03.24,0,.16,0,.33.02.49.04.33.11.65.15.97.09.75.29,1.39.49,2.21.15.64.25,1.36.35,2.06.09.69.2,1.36.34,1.87.18.6.52,1.14.76,1.7.28.68.53,1.36.94,2,.38.62.95,1.15,1.45,1.66.47.52.99,1.06,1.6,1.41,1.01.53,2.14.69,3.12.64.05,0,.1,0,.16,0,.22.28.5.48.68.79.13.24.16.58.27.83.22.52.49.94.74,1.34.23.34.44.72.64,1.09.2.38.4.75.63,1.09.24.36.56.67.81,1.04.25.37.45.78.44,1.38.18.03.37.05.57.03.02.32.19.53.41.48-.63,1.21-1.17,2.4-1.73,3.54-.58,1.18-1.13,2.33-1.73,3.42-.37.68-.82,1.31-1.24,1.99-.67,1.07-1.36,2.16-2.11,3.23-.76,1.06-1.56,2.11-2.39,3.13-4.6,5.52-9.33,9.09-14.01,12,.02-.38-.32-.85.03-1.22-.21-.1-.32-.36-.36-.64-.04-.28-.04-.58-.07-.74-.02-.13-.14-.21-.16-.32-.05-.35-.02-.75-.05-1.15-.08-.93-.33-1.87-.3-2.72.01-.42-.03-.72-.11-1-.12-.47.08-.99.09-1.51,0-.03,0-.06,0-.09.18-.14.33-.28.49-.42.71-.66,1.19-1.41,1.68-2.17.35-.53.79-1.1,1.03-1.67.14-.29.22-.59.31-.87.06-.29.15-.57.17-.84.04-.27.07-.54.07-.79,0-.13,0-.25,0-.38,0-.12-.02-.25-.02-.37-.07-.85-.21-1.67-.47-2.43-.03-.1-.06-.19-.09-.29-.04-.09-.07-.18-.11-.28-.08-.18-.15-.37-.23-.55-.18-.34-.35-.7-.57-1.02-.22-.33-.46-.66-.74-.97-.13-.16-.27-.31-.4-.46-.14-.15-.28-.3-.42-.45-.14-.15-.27-.31-.4-.46-.14-.15-.27-.31-.39-.47-.13-.16-.24-.33-.35-.5-.12-.17-.22-.34-.32-.52-.29-.1-.56-.19-.84-.24-.19-.28-.51-.53-.71-.63-.06-.03-.1-.04-.13-.05-.05-.04-.1-.08-.15-.13,0,0,0,.03-.03.08-.01-.02-.02-.03-.04-.05-.02-.02-.02-.07-.01-.11.01-.08.05-.15-.03-.2-.06.03-.14.09-.19.16-.01.02-.02.03-.03.05,0,0,0,.02-.01.02,0,0,0,0,0,0,0,0,0,0-.01.01-.01.02-.03.03-.04.05-.03.03-.05.07-.07.1-.05.07-.09.14-.13.21-.08.14-.14.29-.19.45-.1.31-.18.63-.28.94-.23.71-.33,1.36-.49,2.18-.14.64-.36,1.34-.57,2-.22.67-.41,1.31-.51,1.84-.1.61-.02,1.24-.05,1.85-.04.72-.11,1.45-.02,2.19.08.72.37,1.42.6,2.07.21.65.44,1.34.86,1.89.7.87,1.69,1.43,2.65,1.74.05.02.1.03.15.05.08.34.25.62.28.98.02.27-.11.59-.12.86-.02.56.04,1.05.1,1.51.06.4.09.82.11,1.24.02.42.03.84.1,1.24.07.42.23.82.29,1.25.07.43.08.89-.21,1.44.16.09.33.18.53.23-.1.25-.08.46.06.55-.27.16-.53.32-.8.47-.78.46-1.54.9-2.29,1.29-.75.39-1.48.75-2.19,1.1-.71.35-1.41.68-2.09.99-.68.31-1.36.57-2.02.84-.66.27-1.31.52-1.96.76-.32.12-.64.24-.96.36-.32.12-.64.23-.96.33-1.28.41-2.55.78-3.85,1.13-.85.24-1.69.41-2.46.56-.77.15-1.48.28-2.07.41-1.19.25-1.94.47-1.87.76,1.33-.06,2.8-.27,4.29-.55.37-.07.75-.15,1.12-.23.38-.09.75-.19,1.12-.28.75-.19,1.49-.4,2.21-.59.84-.24,1.65-.46,2.45-.74.8-.28,1.58-.58,2.38-.89.79-.31,1.59-.64,2.41-.99.21-.1.44-.2.65-.3-.04.04-.09.09-.12.15-.47.71,1.24.3,1.24.86.32-.12.67-.1,1-.04.33.05.63.14.82.16.15.02.36-.05.48-.03.41.05.77.22,1.22.28,1.06.16,2.3.16,3.2.31.45.08.81.11,1.2.07.61-.06,1.01.18,1.55.26.02.04.03.08.05.12.09.22.18.45.23.68.04.24.12.46.08.74.2.16.44.38.66.64.1.14.25.25.37.37.13.12.25.25.42.34.15.09.3.19.44.27.15.08.31.13.46.19.29.12.62.15.95.13.07.06.13.11.21.15.08.03.17.06.26.08.18.04.38.07.58.07.21,0,.42-.03.63-.05.1,0,.2-.02.3-.03.1-.02.21-.03.3-.04.25-.03.45.01.71-.03.82-.14,1.69-.38,2.53-.62,2.55-.71,4.55-1.34,6.49-2.29,2.29-1.16,3.83-2.3,5.37-3.51.51-.4,1-.75,1.33-1.07.16-.16.29-.31.35-.45,0,0,0,0,0-.01.07-.06.11-.09.11-.09-.06-.03-.12-.05-.18-.07.23.01.45,0,.61-.07.18-.09.16-.25,0-.48ZM445.49,99.22s.01-.01.02-.02c0,0,0,0,0,0,0,.01,0,.02-.01.03,0,.02-.02.04-.03.07,0,.02,0,.04-.01.06-.04,0-.07,0-.11.01.03-.03.06-.06.08-.09.02-.02.04-.04.06-.06ZM451.51,75.3s0-.01,0-.02c0,0,0,0,0,0,0,.01,0,.02,0,.03,0,.02,0,.05,0,.07,0,.02,0,.04,0,.06-.03.02-.07.03-.1.05.02-.04.03-.08.05-.11.01-.03.03-.05.04-.08ZM450.58,55.06s0-.01,0-.02c0,0,0,0,0,0,0,.01,0,.02,0,.03,0,.02,0,.05.01.07,0,.02.02.04.02.06-.03.03-.06.05-.1.08,0-.05.02-.09.03-.14,0-.03.01-.05.02-.08ZM443.9,34.78s0-.05,0-.07c0,0,0-.01,0-.02,0,0,0,0,0,0,0,0,0,.02.01.03,0,.02.02.04.03.06.01.02.03.04.04.05-.03.04-.06.07-.08.11,0,0,0-.02,0-.03,0-.05,0-.09,0-.14ZM433.48,20.55s0-.04,0-.06c0,0,0,0,0-.01,0,0,0,0,0,0,0,0,.01.02.02.03.01.02.03.04.04.06.02.02.03.04.05.05-.02.04-.04.09-.07.13,0-.03-.01-.05-.02-.07,0-.04-.01-.08-.02-.12ZM418.56,9.12s-.02-.03-.02-.05c0,0,0,0,0-.01,0,0,0,0,0,0,0,0,.02.01.03.02.02.01.04.03.06.04.02.01.04.02.07.03,0,.06,0,.12,0,.18-.02-.04-.05-.07-.07-.11-.02-.03-.03-.06-.05-.1ZM408.56,3.18s-.02-.05-.03-.07c0-.01,0-.02-.01-.04,0,0,0,0,0,0,0,0,0,0,0,0,0,0,.02.01.03.02.02.01.04.03.06.04.03.01.05.02.08.03,0,.08,0,.16,0,.24-.02-.03-.05-.06-.07-.09-.03-.04-.05-.08-.07-.12ZM395.35.66s0,0-.01,0c0,0,0,0,0,0,0,0,.02,0,.03,0,.02,0,.04,0,.06,0,.02,0,.04,0,.06-.01.05.06.09.12.14.18-.04-.02-.09-.04-.14-.07-.03-.02-.06-.04-.09-.06-.02-.01-.03-.02-.05-.03ZM432.4,120.82s.07-.04.11-.05c.03-.01.05-.02.08-.04,0,0,.01,0,.02,0,0,0,0,0,0,0,0,0-.02.02-.03.02-.02.02-.04.04-.05.06-.01.02-.03.04-.04.06-.03-.01-.06-.03-.1-.04Z"/><path class="cls-10" d="M411.02,81s0,0,0,0c0,0,0,0,0,.01,0,.02-.02.04-.03.06-.02.04-.03.07-.05.11-.03.08-.05.15-.07.23-.04.16-.06.32-.08.48-.03.32-.02.65-.04.97-.06.74.02,1.4.05,2.23.02.66-.02,1.38-.06,2.07-.05.7-.07,1.36-.04,1.89.05.61.29,1.2.41,1.8.14.71.25,1.42.53,2.12.26.68.71,1.29,1.1,1.87.37.59.77,1.2,1.31,1.64.9.69,1.99,1.02,2.99,1.11.05,0,.11.01.16.01.16.31.4.55.52.88.08.25.05.59.11.86.12.55.3,1,.48,1.43.16.37.29.77.42,1.17.12.4.25.8.42,1.17.17.39.43.74.6,1.14.17.4.3.84.17,1.42.18.05.36.1.57.11-.06.44.21.73.65.38.69-.55-.42-1.07-.07-1.69-.23-.05-.4-.28-.51-.54-.11-.26-.19-.54-.25-.69-.05-.12-.19-.17-.23-.27-.14-.32-.21-.71-.34-1.09-.31-.88-.8-1.73-.98-2.55-.1-.41-.21-.68-.35-.94-.23-.42-.17-.97-.3-1.47,0-.03-.02-.05-.03-.08.13-.17.25-.34.36-.5.52-.79.8-1.61,1.09-2.45.21-.59.49-1.23.58-1.84.06-.31.07-.62.09-.91,0-.29,0-.58-.04-.85-.03-.27-.07-.54-.13-.78-.03-.12-.06-.25-.09-.37-.04-.12-.08-.23-.11-.35-.27-.81-.62-1.57-1.05-2.26-.05-.09-.11-.17-.16-.26-.06-.08-.12-.16-.18-.25-.12-.16-.24-.32-.36-.48-.26-.3-.51-.61-.8-.87-.3-.28-.61-.55-.95-.78-.17-.12-.33-.24-.5-.37-.17-.12-.35-.23-.52-.35-.17-.12-.34-.24-.5-.36-.17-.12-.33-.24-.49-.37-.16-.13-.31-.27-.47-.41-.15-.14-.3-.29-.44-.44-.3-.04-.59-.07-.87-.05-.25-.23-.62-.41-.84-.46-.06-.01-.11-.02-.14-.02-.06-.03-.11-.06-.17-.09,0,0,0,.03,0,.08-.01-.01-.03-.03-.05-.04-.02-.01-.04-.06-.04-.1,0-.08,0-.16-.07-.19-.06.04-.12.11-.15.19,0,.02-.01.04-.02.06,0,0,0,.02,0,.03Z"/><path class="cls-7" d="M18.88,120.84c.16.08.38.08.61.07-.06.03-.12.05-.18.07,0,0,.04.03.11.09,0,0,0,0,0,.01.06.14.18.29.35.45.33.32.82.67,1.33,1.07,1.55,1.21,3.08,2.34,5.37,3.51,1.94.95,3.94,1.58,6.49,2.29.84.24,1.71.47,2.53.62.26.04.47,0,.71.03.1.01.2.03.3.04.1.01.2.02.3.03.21.02.42.04.63.05.2,0,.4-.03.58-.07.09-.02.18-.05.26-.08.08-.04.15-.09.21-.15.33.03.66,0,.95-.13.15-.06.31-.11.46-.19.14-.09.29-.18.44-.27.17-.08.29-.22.42-.34.12-.13.28-.23.37-.37.21-.27.45-.48.66-.64-.03-.28.04-.5.08-.74.05-.24.14-.46.23-.68.02-.04.03-.08.05-.12.54-.08.94-.32,1.55-.26.39.04.74.01,1.2-.07.9-.16,2.14-.16,3.2-.31.45-.06.82-.23,1.22-.28.13-.02.33.05.48.03.19-.03.49-.11.82-.16.33-.05.68-.08,1,.04,0-.55,1.71-.15,1.24-.86-.04-.06-.08-.11-.12-.15.22.1.44.21.65.3.82.35,1.62.68,2.41.99.79.31,1.58.6,2.38.89.8.28,1.61.5,2.45.74.72.2,1.46.4,2.21.59.37.1.75.19,1.12.28.37.08.75.15,1.12.23,1.49.28,2.97.49,4.29.55.07-.29-.68-.51-1.87-.76-.6-.12-1.3-.26-2.07-.41-.77-.15-1.61-.32-2.46-.56-1.3-.35-2.57-.73-3.85-1.13-.32-.1-.64-.21-.96-.33-.32-.12-.64-.24-.96-.36-.64-.24-1.3-.49-1.96-.76-.66-.27-1.34-.53-2.02-.84-.68-.31-1.38-.64-2.09-.99-.71-.34-1.44-.71-2.19-1.1-.75-.39-1.5-.84-2.29-1.29-.27-.16-.53-.31-.8-.47.14-.09.17-.3.06-.55.2-.05.37-.14.53-.23-.29-.55-.28-1.01-.21-1.44.07-.43.23-.83.29-1.25.07-.4.09-.82.1-1.24.02-.42.04-.84.11-1.24.06-.46.12-.95.1-1.51,0-.27-.13-.6-.12-.86.03-.35.2-.64.28-.98.05-.02.1-.03.15-.05.95-.31,1.94-.87,2.65-1.74.42-.55.65-1.24.86-1.89.23-.65.52-1.36.6-2.07.09-.75.02-1.47-.02-2.19-.02-.61.06-1.24-.05-1.85-.1-.52-.29-1.17-.51-1.84-.21-.67-.44-1.36-.57-2-.17-.82-.26-1.48-.49-2.18-.1-.3-.17-.63-.28-.94-.05-.15-.11-.31-.19-.45-.04-.07-.08-.14-.13-.21-.02-.03-.05-.07-.07-.1-.01-.02-.03-.03-.04-.05,0,0,0,0-.01-.01,0,0,0,0,0,0,0,0,0-.02-.01-.02,0-.02-.02-.03-.03-.05-.04-.07-.12-.13-.19-.16-.07.05-.04.12-.03.2,0,.04,0,.09-.01.11-.02.02-.03.03-.04.05-.02-.05-.03-.08-.03-.08-.05.04-.1.08-.15.13-.04,0-.08.03-.13.05-.2.1-.52.35-.71.63-.28.04-.56.14-.84.24-.1.18-.21.36-.32.52-.11.17-.23.34-.35.5-.12.16-.26.32-.39.47-.13.15-.26.31-.4.46-.14.15-.28.3-.42.45-.13.16-.27.31-.4.46-.28.3-.51.63-.74.97-.22.32-.39.67-.57,1.02-.08.18-.15.36-.23.55-.04.09-.07.18-.11.28-.03.1-.06.19-.09.29-.26.76-.41,1.58-.47,2.43,0,.12-.02.24-.02.37,0,.13,0,.25,0,.38,0,.25.03.52.07.79.03.27.11.55.17.84.09.29.18.58.31.87.24.58.68,1.14,1.03,1.67.49.75.97,1.5,1.68,2.17.15.14.31.28.49.42,0,.03,0,.06,0,.09,0,.51.21,1.04.09,1.51-.07.28-.12.58-.11,1,.04.84-.22,1.79-.3,2.72-.03.4,0,.8-.05,1.15-.02.11-.14.19-.16.32-.03.16-.02.46-.07.74-.05.28-.15.54-.36.64.35.37.01.83.03,1.22-4.68-2.91-9.41-6.48-14.01-12-.83-1.02-1.63-2.07-2.39-3.13-.75-1.07-1.44-2.16-2.11-3.23-.42-.68-.87-1.31-1.24-1.99-.6-1.09-1.16-2.23-1.73-3.42-.56-1.14-1.09-2.32-1.73-3.54.22.05.39-.16.41-.48.2.02.38,0,.57-.03-.01-.6.19-1.01.44-1.38.25-.37.56-.68.81-1.04.24-.34.43-.72.63-1.09.2-.38.4-.75.64-1.09.25-.4.52-.82.74-1.34.11-.25.14-.59.27-.83.18-.31.46-.52.68-.79.05,0,.1,0,.16,0,.98.06,2.11-.1,3.12-.64.61-.35,1.13-.89,1.6-1.41.49-.51,1.06-1.04,1.45-1.66.41-.64.66-1.33.94-2,.24-.56.59-1.11.76-1.7.14-.51.25-1.18.34-1.87.1-.69.2-1.41.35-2.06.2-.82.4-1.46.49-2.21.04-.32.11-.65.15-.97.02-.16.03-.33.02-.49,0-.08-.01-.16-.03-.24,0-.04-.02-.08-.03-.12,0-.02-.01-.04-.02-.06,0,0,0-.01,0-.01,0,0,0,0,0,0,0,0,0-.02,0-.03,0-.02,0-.04,0-.06-.01-.08-.06-.17-.1-.22-.08.02-.09.09-.11.18-.01.04-.04.09-.06.1-.02,0-.04.02-.06.03,0-.05,0-.08,0-.08-.06.02-.13.04-.19.06-.04,0-.08,0-.15,0-.22.01-.62.12-.92.31-.28-.07-.56-.08-.87-.1-.17.13-.34.25-.52.37-.18.11-.35.23-.54.33-.18.1-.37.2-.56.29-.19.09-.37.19-.56.28-.19.09-.38.18-.57.26-.19.09-.38.19-.56.28-.38.18-.74.4-1.08.62-.33.21-.64.48-.95.73-.15.14-.3.28-.44.42-.07.07-.15.14-.22.22-.07.08-.14.16-.21.23-.56.61-1.05,1.32-1.47,2.08-.06.11-.12.22-.18.33-.05.12-.11.24-.16.35-.11.24-.2.49-.28.76-.09.26-.14.55-.2.84-.04.3-.09.6-.09.92-.03.62.12,1.3.21,1.91.12.87.22,1.73.58,2.59.07.18.16.36.25.55-.01.03-.03.05-.04.08-.22.47-.27,1.03-.58,1.41-.19.23-.36.48-.53.87-.34.78-.98,1.55-1.45,2.37-.2.35-.35.73-.54,1.03-.06.09-.2.13-.28.24-.09.14-.22.41-.38.65-.16.24-.37.44-.6.46.13.4-.24.69-.43.99-.59-1.69-1.33-3.7-2.04-6.09-.39-1.38-.76-2.85-1.06-4.23-.3-1.38-.48-2.66-.55-3.64-.17-.67-.31-1.37-.43-2.09-.08-.54-.14-1.1-.19-1.66.03-.05.06-.11.08-.17.18.07.36.1.53.11.11-.55.39-.88.69-1.16.31-.28.66-.49.96-.75.57-.51,1.05-1.18,1.62-1.69.32-.31.65-.63.96-1.05.15-.2.25-.51.42-.7.22-.24.51-.36.76-.55.04.01.09.02.13.04.87.24,1.92.32,2.94.03.63-.19,1.2-.6,1.74-.97.55-.37,1.19-.73,1.67-1.22.51-.5.88-1.08,1.28-1.64.34-.46.78-.88,1.06-1.39.23-.44.47-1.03.69-1.65.23-.62.47-1.26.74-1.82.36-.71.68-1.26.91-1.93.1-.29.24-.57.34-.87.05-.15.09-.3.12-.45.01-.08.02-.15.02-.23,0-.04,0-.08,0-.12,0-.02,0-.04,0-.06,0,0,0,0,0-.01,0,0,0,0,0,0,0,0,0-.02,0-.03,0-.02,0-.04,0-.06,0-.08-.02-.18-.05-.24-.09,0-.1.08-.15.15-.02.04-.05.08-.08.08-.02,0-.04,0-.06.02.02-.05.03-.08.03-.07-.06,0-.12.01-.18.02-.03-.01-.07-.02-.13-.03-.2-.03-.59,0-.89.12-.24-.13-.49-.2-.76-.28-.18.1-.36.18-.54.25-.18.08-.36.15-.55.21-.18.06-.37.12-.56.16-.19.05-.37.11-.56.15-.19.05-.38.09-.57.13-.19.05-.38.1-.57.15-.38.09-.75.22-1.1.36-.34.13-.67.32-1.01.49-.16.1-.32.2-.49.3-.08.05-.16.1-.24.16-.08.06-.16.12-.23.17-.63.45-1.22,1-1.76,1.61-.08.09-.15.18-.23.27-.07.1-.14.19-.22.29-.15.19-.28.41-.41.63-.14.22-.24.47-.36.72-.1.26-.21.52-.28.81-.16.56-.16,1.19-.22,1.76-.08.8-.19,1.59-.06,2.43.03.17.06.34.1.52-.01.01-.02.02-.03.04-.3.38-.45.88-.82,1.16-.22.17-.43.36-.67.68-.47.64-1.22,1.19-1.82,1.83-.26.27-.47.58-.71.81-.08.07-.21.07-.31.15-.11.1-.29.32-.48.5-.2.18-.43.32-.65.28.02.18-.06.32-.17.43-.09-1.33-.13-2.68-.16-4-.05-1.97-.06-3.85.03-5.71.08-1.86.26-3.7.59-5.58.21-1.22.45-2.44.74-3.78.07-.05.13-.12.18-.21.15.1.3.17.46.22.19-.49.49-.73.82-.92.32-.19.68-.31.99-.49.6-.35,1.14-.87,1.74-1.22.34-.21.69-.44,1.04-.77.17-.16.31-.42.49-.56.23-.16.49-.21.73-.32.03.02.06.03.1.05.71.34,1.61.57,2.56.47.59-.08,1.17-.36,1.71-.61.55-.24,1.18-.45,1.7-.8.55-.36.98-.82,1.43-1.25.39-.36.86-.65,1.21-1.06.59-.71,1.2-1.97,1.9-2.88.45-.58.84-1.02,1.18-1.58.14-.24.32-.48.46-.73.07-.13.14-.25.19-.39.02-.07.04-.14.06-.21,0-.04.01-.07.02-.11,0-.02,0-.04,0-.05,0,0,0,0,0-.01,0,0,0,0,0,0,0,0,0-.02.01-.03,0-.02.02-.04.02-.06.03-.08.02-.18,0-.25-.09-.01-.12.06-.18.13-.03.03-.07.07-.09.07-.02,0-.04,0-.06,0,.02-.04.04-.06.04-.06-.05,0-.11,0-.16,0-.02-.02-.05-.04-.1-.05-.16-.07-.51-.1-.8-.02-.18-.16-.38-.28-.6-.4-.35.14-.69.22-1.04.29-.17.03-.35.06-.52.07-.17.02-.35.04-.52.06-.17.01-.35.02-.52.03-.17.02-.35.03-.52.05-.35.02-.69.09-1.03.16-.33.07-.65.19-.97.3-.32.14-.65.26-.96.43-.64.31-1.25.72-1.85,1.18-.67.53-1.35,1.21-1.84,2.18-.24.47-.36,1.03-.52,1.52-.23.69-.49,1.36-.55,2.11-.01.14-.02.29-.02.44,0,0,0,0,0,0-.33.29-.55.72-.92.9-.23.11-.44.24-.71.48-.53.49-1.29.84-1.94,1.3-.28.2-.52.44-.77.6-.08.05-.2.01-.3.07-.12.07-.31.23-.52.36-.21.12-.44.2-.63.12-.01.13-.07.23-.15.3.19-.84.41-1.73.67-2.7,1.06-4.05,2.8-8.59,5.05-12.95.06-.03.12-.08.18-.16.11.13.23.23.35.31.5-.82,1.19-.71,1.79-.92.57-.19,1.12-.56,1.7-.75.33-.12.67-.26,1.02-.49.17-.11.34-.33.52-.42.2-.09.42-.09.63-.13.02.02.04.03.07.05.54.4,1.27.73,2.1.79.52.02,1.07-.15,1.59-.29.52-.12,1.1-.19,1.61-.42.54-.23.99-.57,1.46-.87.4-.25.87-.42,1.25-.72.64-.53,1.38-1.57,2.15-2.26.5-.44.92-.76,1.31-1.21.17-.19.36-.37.53-.57.08-.1.16-.2.23-.32.03-.06.06-.11.08-.18.01-.03.02-.06.03-.09,0-.02,0-.03.01-.05,0,0,0,0,0-.01,0,0,0,0,0,0,0,0,.01-.02.02-.02.01-.02.02-.04.03-.06.04-.08.06-.18.05-.25-.08-.03-.13.05-.2.11-.03.03-.08.06-.11.05-.02,0-.04,0-.06,0,.03-.03.04-.05.04-.05-.05,0-.09-.02-.14-.03,0-.02-.03-.04-.06-.07-.12-.09-.42-.16-.69-.12-.12-.19-.26-.33-.42-.49-.33.09-.64.13-.95.15-.31.01-.61,0-.91-.02-.15-.01-.3-.03-.45-.04-.15-.01-.3-.02-.45-.03-.3-.03-.61-.03-.91,0-.29.02-.59.07-.89.12-.3.08-.6.13-.9.24-.6.18-1.21.45-1.8.76-.67.36-1.39.84-1.98,1.61-.29.37-.48.84-.71,1.23-.32.55-.69,1.08-.89,1.72-.03.11-.06.22-.09.34-.31.21-.56.54-.89.61-.21.05-.42.13-.69.3-.54.34-1.25.5-1.88.78-.27.12-.52.3-.76.39-.08.03-.18-.03-.27,0-.21.08-.69.39-1,.22.95-1.77,1.96-3.5,3.02-5.17,1.67-2.63,3.37-5.09,5.14-7.27.22-.28.47-.56.73-.84.04.04.08.08.12.12.44-.73,1-.57,1.5-.72.48-.13.94-.43,1.42-.57.27-.09.56-.18.86-.37.15-.09.29-.29.44-.35.13-.05.26-.05.39-.06.02.02.04.03.07.05.41.31.99.57,1.69.6.44.01.92-.16,1.35-.27.44-.1.93-.13,1.37-.31.47-.18.86-.46,1.28-.71.35-.2.77-.31,1.1-.56.57-.44,1.21-1.32,1.91-1.86.45-.35.83-.6,1.18-.97.15-.16.33-.3.48-.47.08-.08.15-.17.2-.26.03-.05.05-.1.07-.15,0-.03.02-.05.03-.08,0-.01,0-.03.01-.04,0,0,0,0,0-.01,0,0,0,0,0,0,0,0,.01-.02.02-.02.01-.02.03-.04.04-.06.05-.08.08-.18.07-.25-.09-.02-.15.05-.23.11-.04.03-.09.06-.11.05-.02,0-.04,0-.06-.01.02-.02.04-.04.04-.04-.04,0-.08-.01-.11-.02,0-.02,0-.04-.03-.06-.08-.08-.34-.13-.57-.07-.07-.18-.17-.32-.28-.46-.29.11-.56.17-.82.21-.26.03-.51.03-.76.02-.25-.02-.5-.03-.74-.05-.25-.02-.5-.02-.76,0-.24.02-.5.07-.75.12-.25.07-.51.12-.77.21-.51.16-1.03.38-1.54.63-.58.29-1.21.68-1.74,1.29-.26.3-.43.67-.64.98-.3.43-.67.83-.88,1.32-.03.07-.06.15-.09.23-.22.17-.41.4-.65.43-.18.03-.35.09-.58.22-.45.28-1.04.37-1.57.58-.23.09-.43.24-.64.3-.04.01-.08,0-.13-.02,0,0,.02-.02.02-.03.87-1,2.37-2.73,4.04-4.39,1.64-1.68,3.45-3.26,4.65-4.15.45-.54,1.24-1.28,2.2-2.09.08-.07.17-.14.25-.21.21-.03.43-.07.64-.13.35-.08.68-.18,1.03-.23.42-.07.87-.21,1.44-.52.56-.31,1.18-.67,1.8-1.09.61-.42,1.23-.9,1.76-1.4.24-.21.42-.44.63-.65.19-.21.37-.42.57-.62.12-.12.32-.22.47-.37.19-.18.45-.52.75-.84.3-.33.63-.65.97-.8-.03-.13.05-.3.19-.48.07-.09.15-.18.23-.27.04-.05.09-.09.13-.14.05-.06.13-.15.19-.22.26-.32.45-.68.5-.89.05-.22,0-.29-.2-.2-.17.09-.35.23-.51.36.03-.04.06-.08.09-.12,0,0-.03,0-.06.01,0,0,0,0,0,0-.03-.07-.1-.1-.2-.1-.19-.01-.48.07-.77.12-.89.13-1.76.26-3.01.76-1.06.44-2.09,1.12-3.39,1.86-.43.24-.89.48-1.32.75-.13.09-.23.21-.35.3-.21.14-.43.28-.66.45-.2.18-.41.38-.48.65-.19.12-.37.28-.51.47-.07.1-.15.2-.22.31-.07.11-.13.23-.21.35-.28.49-.41,1.03-.68,1.41.08.13.09.28.09.43,0,.15-.03.31-.06.48-.01.06-.02.12-.03.18-2.07,1.97-4.15,3.95-6.15,5.96-.25-.27.13-.69.26-1.02.13-.37.14-.73.29-1.1.09-.21.19-.43.19-.67,0-.11-.1-.23-.05-.35.06-.17.28-.34.38-.51,0,0,0,0,0-.01.07-.05.14-.1.2-.15.11-.1.23-.2.33-.29.1-.1.21-.2.32-.29.11-.09.21-.19.33-.27.15-.09.28-.22.42-.35.15-.13.27-.3.41-.49.14-.19.27-.39.41-.6.15-.21.27-.43.4-.65.15-.22.25-.45.36-.68.05-.11.11-.23.16-.34.05-.11.08-.22.11-.33.06-.19.1-.37.13-.54.03-.17.04-.33.09-.5.03-.1.16-.24.2-.36.05-.16.06-.4.11-.67.05-.26.15-.54.38-.77-.27-.1-.18-.56-.24-.98-.06-.41-.22-.67-.44-.32-.1.15-.17.31-.23.45,0,0,0,.02,0,.04,0,0,0-.01,0-.02,0,0,0-.02,0-.02,0,0,0,0,0,0,0,0,0,0,0,0,0-.02,0-.03,0-.05,0,0-.02.01-.04.03,0,0,0,0,0,0-.07-.03-.15-.01-.23.02-.15.07-.31.23-.5.37-.58.42-1.16.83-1.78,1.57-.52.64-.83,1.37-1.39,2.21-.19.28-.43.57-.61.86-.06.09-.05.18-.1.27-.09.15-.2.31-.29.47-.07.16-.11.34,0,.47-.11.14-.17.29-.18.43-.02.15,0,.3,0,.47.03.34.21.61.14.93.28,0,.38.16.49.33.03.16.08.3-.04.47-.1.14-.15.28-.16.47-.03.37-.3.85-.41,1.28-.05.18,0,.34-.06.51-.02.05-.13.13-.15.19-.05.16,0,.5-.39.74.47.04-.37.71.36.57,0,0,0,0,.01,0-1.5,1.53-2.94,3.08-4.31,4.66-.23.06-.51.02-.5.49,0,.03,0,.06,0,.09-.88,1.04-1.72,2.08-2.52,3.13-.93,1.23-1.82,2.49-2.66,3.77-.31-.44.02-1.09.1-1.63.09-.58.08-1.14.2-1.73.08-.34.16-.68.16-1.05,0-.18-.1-.36-.06-.55.06-.27.27-.54.36-.81.02-.04.03-.09.05-.14.32-.23.6-.51.86-.78.28-.29.54-.58.84-.86.36-.33.7-.74,1.04-1.33.34-.58.69-1.24.99-1.93.3-.69.56-1.41.72-2.09.08-.29.1-.56.15-.83.03-.27.06-.52.11-.77.03-.16.15-.36.19-.55.05-.24.06-.63.11-1.03.06-.41.13-.82.35-1.14-.12-.07-.17-.22-.17-.42,0-.1,0-.21.02-.32,0-.06.01-.11.02-.17,0-.07.01-.17.01-.25,0-.36-.08-.7-.19-.85-.12-.16-.23-.17-.34,0-.1.16-.16.35-.22.54,0-.01,0-.02,0-.04,0,0,0-.02,0-.02,0-.02,0-.05,0-.07,0,0-.02.02-.06.05,0,0,0,0,0,0-.09-.01-.18.02-.28.08-.2.13-.43.37-.69.6-.79.69-1.57,1.37-2.43,2.54-.71,1-1.22,2.11-1.94,3.48-.24.45-.51.92-.72,1.38-.06.15-.06.29-.12.43-.1.23-.21.48-.29.73-.04.13-.06.26-.06.38,0,.13.02.24.08.35-.1.21-.14.42-.14.64,0,.11,0,.23.02.34.02.11.04.23.06.35.09.5.36.92.38,1.33.17.02.28.12.39.2.11.09.2.21.29.33,0,0,0,0,0,0,0,.31.11.58-.02.9-.09.22-.13.45-.14.74-.02.57-.24,1.32-.31,1.99-.03.29.03.54,0,.79-.01.08-.11.19-.12.29-.04.24.05.78-.28,1.13.43.08-.19.99.34.92-2.4,3.79-4.43,7.78-6.12,11.86-.14.34-.28.68-.41,1.02-.61-.27-.56-1.12-.71-1.74-.17-.62-.41-1.19-.55-1.83-.07-.37-.13-.76-.29-1.14-.08-.18-.25-.32-.29-.53-.06-.3.04-.66.02-.97,0-.06,0-.13-.01-.2.28-.4.48-.83.67-1.24.19-.42.35-.84.57-1.26.26-.51.46-1.07.59-1.82.13-.74.24-1.56.27-2.38.04-.82,0-1.66-.11-2.4-.04-.33-.13-.61-.2-.89-.08-.28-.16-.54-.22-.82-.04-.17,0-.41-.05-.61-.05-.26-.22-.64-.34-1.06-.12-.42-.23-.86-.16-1.25-.16-.02-.28-.15-.37-.34-.05-.1-.09-.21-.13-.32-.02-.06-.04-.12-.06-.17-.02-.07-.06-.16-.1-.24-.15-.33-.38-.6-.58-.7-.19-.1-.32-.08-.36.11-.04.17-.02.37,0,.57-.02-.04-.04-.08-.06-.13,0,0-.02.03-.04.08,0,0,0,0,0,0-.1.03-.19.12-.27.23-.17.23-.32.58-.52.93-.59,1.07-1.16,2.13-1.61,3.7-.37,1.33-.47,2.68-.66,4.38-.07.56-.15,1.15-.16,1.71,0,.18.06.31.06.48,0,.27,0,.56.02.86.02.14.05.28.1.4.05.13.12.24.23.31,0,.24.04.47.15.68.05.11.1.22.17.32.07.1.15.21.22.32.07.12.17.21.27.3.1.09.18.2.29.27.2.16.36.34.48.51.19-.05.35,0,.52.03.16.04.32.11.47.18,0,0,.02,0,.03.01.14.32.36.56.37.95,0,.26.06.5.18.8.22.59.33,1.43.55,2.14.09.3.26.53.34.8.03.09-.02.24,0,.34.07.26.39.77.22,1.25.37-.06.31.65.52.8-.99,2.67-1.86,5.51-2.52,8.67-.43,2.01-.68,4.19-.95,6.24-.08.63-.16,1.25-.23,1.87,0-.2-.12-.37-.29-.42.04-.23.04-.44.05-.65-.4-.08-.67-.36-.87-.72-.2-.36-.35-.79-.54-1.14-.37-.66-.8-1.27-1.14-1.97-.18-.41-.37-.83-.64-1.24-.13-.2-.35-.33-.45-.57-.15-.33-.16-.75-.27-1.1-.03-.09-.06-.18-.08-.27,0-.02.02-.04.02-.05.21-.52.34-1.06.45-1.58.11-.52.19-1.04.32-1.57.15-.65.23-1.34.19-2.22-.04-.88-.13-1.84-.3-2.8-.17-.95-.42-1.9-.74-2.72-.12-.37-.3-.67-.45-.99-.16-.31-.32-.59-.45-.89-.09-.19-.12-.46-.22-.68-.13-.28-.4-.69-.65-1.15-.25-.46-.48-.93-.51-1.37-.17,0-.33-.14-.48-.34-.08-.1-.15-.22-.22-.34-.04-.06-.07-.12-.11-.19-.04-.07-.11-.16-.16-.24-.24-.33-.55-.59-.77-.67-.23-.09-.36-.05-.36.14,0,.18.06.38.13.58-.03-.04-.07-.09-.1-.13,0,0-.01.04-.03.1,0,0,0,0,0,0-.09.06-.17.18-.24.33-.14.3-.23.74-.37,1.2-.41,1.38-.78,2.73-.93,4.66-.1,1.63.08,3.23.32,5.26.07.67.15,1.37.28,2.01.04.2.14.35.19.54.07.32.16.64.26.97.06.16.14.3.22.44.04.07.09.13.15.19.06.05.12.1.19.13.07.27.19.52.37.73.09.11.18.23.28.33.11.1.22.2.34.31.11.12.25.19.38.28.13.08.26.18.4.24.26.13.5.3.68.45.2-.08.39-.06.59-.06.19,0,.39.05.58.09.02,0,.05.01.07.02.24.36.55.6.68,1.06.09.3.21.56.42.88.41.63.78,1.57,1.23,2.32.19.32.44.55.6.85.05.09.05.26.11.37.08.14.24.34.38.57.14.23.26.49.25.77.48-.15.62,1.26,1.1.7.08-.1.13-.2.15-.3-.25,2.18-.45,4.31-.47,6.56-.04,4.08.32,8.56,1.29,13.17-.29-.1-.54-.28-.78-.52-.34-.34-.65-.76-.97-1.09-.62-.63-1.29-1.19-1.89-1.87-.33-.4-.68-.82-1.1-1.2-.21-.19-.48-.29-.67-.53-.26-.32-.42-.77-.66-1.12-.07-.1-.13-.2-.2-.3,0-.04.01-.08.02-.13.07-.64.05-1.26.02-1.87-.03-.61-.1-1.2-.12-1.83-.04-.76-.15-1.54-.46-2.51-.3-.96-.69-2.01-1.16-3.02-.47-1.01-1.02-1.99-1.62-2.82-.12-.19-.25-.35-.39-.51-.13-.16-.26-.32-.39-.47-.26-.3-.52-.58-.75-.88-.15-.19-.27-.47-.45-.69-.22-.28-.64-.67-1.04-1.11-.4-.44-.8-.9-.97-1.36-.18.02-.4-.1-.62-.29-.11-.09-.23-.21-.34-.32-.06-.06-.12-.12-.17-.18-.07-.07-.16-.15-.24-.22-.34-.3-.73-.5-1-.55-.27-.05-.4,0-.36.19.04.17.16.36.29.56-.05-.04-.1-.08-.15-.12,0,0,0,.04,0,.12,0,0,0,0,0,0-.08.1-.12.25-.15.43-.06.37-.04.89-.06,1.43-.05,1.65-.06,3.25.34,5.45.36,1.85,1.01,3.62,1.88,5.83.28.73.59,1.48.93,2.16.11.21.26.36.38.56.18.33.38.66.59,1,.11.16.24.3.38.42.07.06.14.12.21.17.08.05.16.08.24.11.16.26.37.51.63.69.13.1.26.2.41.29.15.08.3.16.46.25.16.1.33.15.5.21.17.05.34.13.51.16.33.07.64.18.88.29.2-.13.41-.15.62-.2.21-.04.44-.05.67-.06.04,0,.07,0,.11,0,.38.36.79.56,1.09,1.03.19.3.42.56.74.86.64.6,1.36,1.52,2.09,2.23.31.31.65.5.93.77.09.08.15.27.25.37.13.13.37.31.6.53.23.21.45.46.54.75.22-.12.48.15.72.38.16.67.33,1.34.52,2.02.35,1.35.83,2.7,1.33,4.05.5,1.35,1.04,2.69,1.62,4.01.97,2.31,2.1,4.73,3.38,7.01-.45.04-.9-.12-1.33-.38-.46-.28-.91-.64-1.35-.92-.42-.26-.85-.5-1.28-.75-.43-.25-.86-.5-1.27-.8-.47-.35-.96-.71-1.52-1.03-.27-.15-.59-.22-.85-.42-.37-.29-.67-.71-1.03-1.04-.1-.1-.21-.2-.32-.3,0-.06-.01-.12-.02-.18-.1-.7-.29-1.37-.49-2.01-.2-.65-.43-1.27-.63-1.94-.25-.8-.59-1.62-1.17-2.59-.58-.97-1.27-2-2.04-2.98-.77-.97-1.61-1.9-2.46-2.66-.09-.08-.18-.16-.27-.25-.09-.07-.18-.15-.27-.22-.18-.14-.36-.28-.54-.42-.35-.27-.7-.51-1.03-.78-.21-.17-.41-.43-.65-.63-.16-.11-.37-.28-.61-.43-.24-.16-.52-.34-.79-.53-.54-.39-1.09-.78-1.39-1.22-.19.05-.44-.03-.73-.19-.14-.08-.29-.17-.45-.27-.08-.05-.15-.1-.23-.15-.09-.06-.2-.12-.31-.18-.43-.24-.88-.38-1.17-.38-.29,0-.42.06-.34.24.07.16.24.33.43.5-.06-.03-.13-.07-.19-.1,0,0,0,.05.02.13,0,0,0,0,0,.01-.05.12-.06.29-.04.5.04.42.19.97.31,1.57.38,1.8.79,3.53,1.79,5.83.87,1.92,2.01,3.71,3.55,5.9.5.73,1.04,1.46,1.59,2.12.18.2.38.33.56.52.07.08.14.15.22.24.07.08.15.15.22.23.15.16.31.31.47.46.17.14.34.26.52.37.09.05.18.1.28.14.09.03.19.05.29.07.25.24.54.45.86.59.16.07.33.15.51.21.18.05.37.1.56.16.2.07.39.08.59.1.2.02.4.06.58.05.37,0,.72.04,1.01.09.17-.18.39-.25.61-.35.21-.1.45-.16.69-.23.04-.01.09-.02.13-.04.51.31,1,.44,1.46.88.29.28.6.5,1.04.74.86.5,1.88,1.3,2.87,1.89.42.25.84.39,1.21.61.12.07.23.24.38.32.18.1.49.24.79.42.31.17.62.38.8.65.3-.25,1.02.44,1.4.47.72,1.15,1.47,2.26,2.25,3.34.91,1.23,1.87,2.42,2.86,3.62.21.25.42.51.63.76.21.25.43.5.65.75.44.5.88,1.01,1.34,1.5.91,1,1.84,1.99,2.85,2.87.18.16.36.33.55.49-.4.22-.89.21-1.4.09-.52-.12-1.06-.33-1.57-.45-.48-.11-.96-.21-1.44-.31-.48-.1-.96-.21-1.44-.36-.55-.18-1.13-.38-1.75-.5-.3-.06-.61,0-.93-.12-.44-.15-.87-.47-1.31-.67-.13-.06-.26-.12-.4-.18-.03-.06-.05-.11-.09-.17-.35-.66-.76-1.26-1.18-1.83-.42-.57-.85-1.11-1.27-1.7-.52-.71-1.11-1.4-1.99-2.16-.87-.75-1.86-1.53-2.91-2.21-1.04-.68-2.14-1.29-3.18-1.72-.11-.05-.22-.09-.33-.14-.11-.04-.22-.08-.32-.11-.21-.07-.43-.15-.64-.22-.42-.13-.81-.24-1.21-.38-.25-.09-.52-.27-.81-.37-.18-.05-.43-.13-.71-.19-.28-.06-.59-.13-.9-.22-.63-.17-1.26-.35-1.69-.66-.15.12-.41.14-.73.1-.16-.02-.33-.05-.5-.09-.09-.02-.17-.04-.26-.06-.1-.02-.23-.04-.34-.05-.47-.06-.93-.02-1.19.09-.26.11-.35.23-.22.38.13.13.34.23.57.32-.07,0-.14-.01-.21-.02,0,0,.02.04.07.12,0,0,0,0,0,.01,0,.14.05.31.15.51.18.4.52.89.84,1.42.99,1.62,1.99,3.17,3.72,5.05,1.48,1.56,3.17,2.89,5.35,4.48.72.53,1.47,1.06,2.21,1.5.23.14.46.18.69.3.09.05.19.1.28.15.09.05.19.1.29.14.19.1.39.2.59.29.2.08.4.13.6.17.1.02.2.03.3.04.1,0,.19-.02.28-.04.31.15.65.25.99.27.17.01.36.03.54.02.18-.02.36-.03.56-.05.2,0,.38-.07.57-.11.18-.06.38-.08.54-.16.33-.13.66-.22.94-.27.09-.24.26-.39.41-.57.16-.17.34-.32.53-.47.03-.03.07-.05.1-.08.57.13,1.07.08,1.64.36.36.17.73.28,1.21.38.96.2,2.18.64,3.29.89.47.11.9.1,1.32.2.13.03.3.16.46.2.2.04.53.07.87.15.34.07.7.17.97.38.2-.39,1.28.19,1.54-.05,3.42,2.78,8.24,5.74,12.73,7.92.47.24.94.46,1.39.68-.18-.01-.34.04-.45.17-.25-.13-.5-.22-.75-.31-.25.38-.68.55-1.19.62-.5.06-1.06.05-1.55.1-.46.06-.91.13-1.37.2-.46.07-.91.14-1.39.17-.55.02-1.13.03-1.72.15-.28.06-.53.22-.84.23-.44.01-.95-.15-1.41-.19-.14-.01-.28-.02-.42-.03-.05-.05-.1-.1-.15-.14-.59-.54-1.21-.99-1.82-1.41-.61-.42-1.21-.8-1.83-1.24-.75-.52-1.56-.98-2.64-1.41-1.07-.42-2.25-.81-3.43-1.09-1.18-.27-2.37-.44-3.43-.45-.11,0-.23,0-.34,0-.11,0-.22.01-.32.02-.21.02-.42.03-.63.05-.41.04-.79.1-1.18.12-.24.02-.56-.05-.84-.03-.17.02-.42.05-.67.11-.26.06-.55.12-.85.17-.6.1-1.2.2-1.69.07-.07.19-.28.33-.56.43-.14.05-.29.09-.45.13-.08.02-.16.04-.24.06-.09.02-.21.06-.3.1-.42.15-.77.41-.94.64-.17.23-.19.4,0,.48ZM6.69,99.29s.06.06.08.09c-.04,0-.07,0-.11-.01,0-.02,0-.04-.01-.06,0-.02-.02-.05-.03-.07,0-.01,0-.02-.01-.03,0,0,0,0,0,0,0,0,.01.01.02.02.02.02.04.04.06.06ZM.65,75.38s.03.07.05.11c-.03-.02-.07-.04-.1-.05,0-.02,0-.04,0-.06,0-.03,0-.05,0-.07,0-.01,0-.02,0-.03,0,0,0,0,0,0,0,0,0,.01,0,.02.01.03.03.05.04.08ZM1.56,55.14s.02.09.03.14c-.03-.03-.06-.05-.1-.08,0-.02.02-.04.02-.06,0-.02.01-.05.01-.07,0-.01,0-.02,0-.03,0,0,0,0,0,0,0,0,0,.01,0,.02,0,.03.01.05.02.08ZM8.22,34.92s0,.02,0,.03c-.03-.04-.06-.07-.08-.11.01-.02.03-.03.04-.05.01-.02.02-.04.03-.06,0-.01,0-.02.01-.03,0,0,0,0,0,0,0,0,0,.01,0,.02,0,.02,0,.05,0,.07,0,.05,0,.09,0,.14ZM18.62,20.66s-.01.05-.02.07c-.02-.04-.04-.09-.07-.13.02-.02.04-.03.05-.05.02-.02.03-.04.04-.06,0,0,.01-.02.02-.03,0,0,0,0,0,0,0,0,0,0,0,.01,0,.02,0,.04,0,.06,0,.04-.01.08-.02.12ZM33.51,9.22s-.05.07-.07.11c0-.06,0-.12,0-.18.02,0,.04-.02.07-.03.02-.01.04-.03.06-.04,0,0,.02-.01.03-.02,0,0,0,0,0,0,0,0,0,0,0,.01,0,.02-.01.03-.02.05-.02.03-.03.06-.05.1ZM43.49,3.3s-.04.06-.07.09c0-.08,0-.16,0-.24.03,0,.05-.02.08-.03.02-.01.04-.02.06-.04,0,0,.02-.01.03-.02,0,0,0,0,0,0,0,0,0,0,0,0,0,.01,0,.02-.01.04,0,.02-.02.05-.03.07-.02.04-.04.09-.07.12ZM56.72.69s-.06.04-.09.06c-.05.03-.09.05-.14.07.05-.06.09-.12.14-.18.02,0,.04.01.06.01.02,0,.04,0,.06,0,0,0,.02,0,.03,0,0,0,0,0,0,0,0,0,0,0-.01,0-.02.01-.03.02-.05.03ZM19.62,120.86s-.02-.04-.04-.06c-.02-.02-.04-.04-.05-.06,0,0-.02-.02-.03-.02,0,0,0,0,0,0,0,0,.01,0,.02,0,.03.01.05.02.08.04.04.02.07.04.11.05-.03.01-.06.03-.1.04Z"/><path class="cls-8" d="M41.09,81s0,0,0,0c0,0,0,0,0,.01,0,.02.02.04.03.06.02.04.03.07.05.11.03.08.05.15.07.23.04.16.06.32.08.48.03.32.02.65.04.97.06.74-.02,1.4-.05,2.23-.02.66.02,1.38.06,2.07.05.7.07,1.36.04,1.89-.05.61-.29,1.2-.41,1.8-.14.71-.25,1.42-.53,2.12-.26.68-.71,1.29-1.1,1.87-.37.59-.77,1.2-1.31,1.64-.9.69-1.99,1.02-2.99,1.11-.05,0-.11.01-.16.01-.16.31-.4.55-.52.88-.08.25-.05.59-.11.86-.12.55-.3,1-.48,1.43-.16.37-.29.77-.42,1.17-.12.4-.25.8-.42,1.17-.17.39-.43.74-.6,1.14-.17.4-.3.84-.17,1.42-.18.05-.36.1-.57.11.06.44-.21.73-.65.38-.69-.55.42-1.07.07-1.69.23-.05.4-.28.51-.54.11-.26.19-.54.25-.69.05-.12.19-.17.23-.27.14-.32.21-.71.34-1.09.31-.88.8-1.73.98-2.55.1-.41.21-.68.35-.94.23-.42.17-.97.3-1.47,0-.03.02-.05.03-.08-.13-.17-.25-.34-.36-.5-.52-.79-.8-1.61-1.09-2.45-.21-.59-.49-1.23-.58-1.84-.06-.31-.07-.62-.09-.91,0-.29,0-.58.04-.85.03-.27.07-.54.13-.78.03-.12.06-.25.09-.37.04-.12.08-.23.11-.35.27-.81.62-1.57,1.05-2.26.05-.09.11-.17.16-.26.06-.08.12-.16.18-.25.12-.16.24-.32.36-.48.26-.3.51-.61.8-.87.3-.28.61-.55.95-.78.17-.12.33-.24.5-.37.17-.12.35-.23.52-.35.17-.12.34-.24.5-.36.17-.12.33-.24.49-.37.16-.13.31-.27.47-.41.15-.14.3-.29.44-.44.3-.04.59-.07.87-.05.25-.23.62-.41.84-.46.06-.01.11-.02.14-.02.06-.03.11-.06.17-.09,0,0,0,.03,0,.08.01-.01.03-.03.05-.04.02-.01.04-.06.04-.1,0-.08,0-.16.07-.19.06.04.12.11.15.19,0,.02.01.04.02.06,0,0,0,.02,0,.03Z"/></g></svg>