<?xml version="1.0" encoding="UTF-8"?><svg id="_レイヤー_2" xmlns="http://www.w3.org/2000/svg" viewBox="0 0 33.42 45.1"><defs><style>.cls-1{fill:#64c4db;}</style></defs><g id="_不安"><path class="cls-1" d="M.47,39.8c1.48-2.68,3.83-2.48,5.04-1.81,1.84,1.01,2.27,3.1,1.17,5.09-.9,1.63-2.85,2.68-4.9,1.55-1.73-.96-2.27-3.1-1.31-4.83ZM6.05,31.91c.76-2.25.88-2.6,1.37-3.49,1.62-2.94,4.49-4.92,9.91-6.18,5.64-1.28,8.76-2.23,10.41-5.22,1.79-3.26.21-7.21-5.62-10.43-3.21-1.77-6.98-2.75-9.85-2.76l.26-3.83c3.7.12,8.27,1.4,11.95,3.43,9.09,5.01,10.27,11.21,7.86,15.57-2.23,4.05-6.42,5.44-12.51,6.67-4.47.9-7.11,2.59-8.59,5.27-.23.42-.41.87-.62,1.37l-.63,1.77-3.94-2.17Z"/></g></svg>