<?xml version="1.0" encoding="UTF-8"?><svg id="_レイヤー_2" xmlns="http://www.w3.org/2000/svg" xmlns:xlink="http://www.w3.org/1999/xlink" viewBox="0 0 239.45 182.33"><defs><style>.cls-1,.cls-2{fill:none;}.cls-3{fill:#009fe8;}.cls-4{fill:#231815;}.cls-5{fill:#fff;}.cls-6{clip-path:url(#clippath);}.cls-2{stroke:#fff;stroke-miterlimit:10;stroke-width:2px;}</style><clipPath id="clippath"><path class="cls-1" d="M203.52,8.91c-.65-2.44-5.82-6.52-8.84-8.49-.27-.17-.49-.32-.66-.42,1.24,3.1,1.23,5.32.88,6.87-.7-.11-1.39-.2-2.09-.27-1.84-1.72-4.11-3.41-5.75-4.48-.27-.17-.49-.32-.66-.42.73,1.82,1.02,3.33,1.07,4.58-.1,0-.19,0-.29,0-27.03,0-50.21,18.73-67.46,41.31C102.47,24.99,79.3,6.26,52.27,6.26,27.55,6.26,0,24.72,0,60.79s26.78,54.52,52.27,54.52c27.03,0,50.21-18.73,67.46-41.03,17.25,22.3,40.42,41.03,67.46,41.03,24.72,0,52.27-18.17,52.27-54.52,0-28.17-16.8-45.59-35.93-51.87ZM85.55,80.96c-.11-1.43-.38-2.93-.73-4.06-.35-1.13-1.14-3.07-3.06-5.69-2.33-3.18-7.34-10.18-15.26-10.25-6.44-.06-10.78,3.93-11.77,4.89,7.16-1.03,13.94,1.42,17.01,6.17,2.31,3.58,2.68,8.73,2.52,10.89-.07.96-.4,2.68-.58,3.59-6.83,2.56-13.58,4.02-19.54,4.02-14.62,0-28.63-10.57-28.63-29.74s14.01-29.74,28.63-29.74c18.54,0,43.89,14.76,55.22,29.74-5.97,7.93-14.56,14.95-23.82,20.17ZM185.3,90.53c-5.13,0-10.78-1.13-16.51-3.09-.12-.69-.22-1.39-.26-1.89-.16-2.17.21-7.31,2.52-10.89,3.06-4.75,9.85-7.2,17.01-6.17-.99-.96-5.33-4.96-11.77-4.89-7.92.08-12.94,7.07-15.26,10.25-1.92,2.62-2.71,4.56-3.06,5.69-.26.85-.48,1.91-.62,3-10.98-5.67-21.15-13.67-27.25-21.74,11.33-14.98,36.66-29.74,55.2-29.74,14.21,0,28.63,10.13,28.63,29.74s-14.01,29.74-28.63,29.74Z"/></clipPath></defs><g id="_店舗"><path class="cls-4" d="M29.89,154.37l9.04,20.46h-4.17l-2.12-4.98h-9.1l-1.98,4.98h-4.15l8.44-20.46h4.04ZM24.73,166.85h6.61l-3.46-8.1-3.15,8.1Z"/><path class="cls-4" d="M46.3,154.37l12.16,14.28v-14.28h3.87v20.46h-3.4l-12.23-14.52v14.52h-3.87v-20.46h3.47Z"/><path class="cls-4" d="M74.46,154.37v20.46h-3.96v-20.46h3.96Z"/><path class="cls-4" d="M86.22,154.37l6.72,8.07,6.72-8.07h3.53v20.46h-3.96v-14.37h-.12l-5.92,7.21h-.56l-5.92-7.21h-.12v14.37h-3.96v-20.46h3.56Z"/><path class="cls-4" d="M119.58,154.37l9.04,20.46h-4.17l-2.12-4.98h-9.1l-1.98,4.98h-4.15l8.44-20.46h4.04ZM114.43,166.85h6.61l-3.46-8.1-3.15,8.1Z"/><path class="cls-4" d="M150.51,154.37v17.37h9.93v3.09h-13.89v-20.46h3.96Z"/><path class="cls-4" d="M169.9,154.37v20.46h-3.96v-20.46h3.96Z"/><path class="cls-4" d="M180.67,154.37l12.16,14.28v-14.28h3.87v20.46h-3.4l-12.23-14.52v14.52h-3.87v-20.46h3.47Z"/><path class="cls-4" d="M207.85,154.37v9.45h.09l7.5-9.45h4.5l-7.62,9.64,9.87,10.83h-5.07l-9.27-10.05v10.05h-3.96v-20.46h3.96Z"/><path class="cls-4" d="M83.22,129.98h2.44c.94,0,1.65.21,2.15.63.5.42.75.99.75,1.71s-.25,1.31-.75,1.74c-.5.43-1.24.64-2.21.64h-1.69v4.14h-.69v-8.87ZM83.9,130.55v3.58h1.65c.74,0,1.3-.16,1.69-.47.39-.31.58-.76.58-1.33s-.19-.98-.56-1.3c-.38-.32-.92-.48-1.62-.48h-1.73Z"/><path class="cls-4" d="M97.31,129.98v.57h-4.15v3.55h4.04v.58h-4.04v3.6h4.25v.57h-4.94v-8.87h4.84Z"/><path class="cls-4" d="M107.8,129.98v.57h-3.33v8.3h-.69v-8.3h-3.33v-.57h7.34Z"/><path class="cls-4" d="M121.87,130.42v.76c-.77-.45-1.43-.68-1.99-.68s-.98.16-1.34.49c-.36.32-.54.72-.54,1.2,0,.34.11.65.32.93.21.28.65.54,1.33.79s1.16.47,1.47.63c.31.17.57.42.79.74s.32.74.32,1.25c0,.68-.25,1.26-.75,1.73-.5.47-1.11.7-1.83.7s-1.49-.26-2.27-.77v-.81c.86.63,1.6.95,2.23.95.52,0,.97-.17,1.33-.51.36-.34.54-.76.54-1.25,0-.38-.11-.72-.34-1.02-.22-.3-.68-.58-1.36-.85-.69-.26-1.17-.47-1.47-.63-.29-.16-.54-.39-.75-.69-.21-.3-.31-.68-.31-1.15,0-.65.25-1.21.75-1.67.5-.46,1.1-.69,1.8-.69s1.37.19,2.05.56Z"/><path class="cls-4" d="M133.69,129.98v8.87h-.69v-4.2h-5.92v4.2h-.69v-8.87h.69v4.09h5.92v-4.09h.69Z"/><path class="cls-4" d="M142.66,129.86c1.31,0,2.42.44,3.34,1.32.91.88,1.37,1.96,1.37,3.23s-.46,2.34-1.37,3.22c-.91.88-2.02,1.32-3.34,1.32s-2.42-.44-3.32-1.32c-.91-.88-1.36-1.96-1.36-3.22s.45-2.35,1.36-3.23c.91-.88,2.02-1.32,3.32-1.32ZM142.69,138.33c1.1,0,2.04-.38,2.8-1.13.76-.76,1.14-1.68,1.14-2.78s-.38-2.03-1.14-2.78c-.76-.76-1.69-1.13-2.8-1.13s-2.05.38-2.82,1.13c-.77.75-1.15,1.68-1.15,2.78s.38,2.02,1.15,2.78c.77.75,1.71,1.13,2.82,1.13Z"/><path class="cls-4" d="M151.64,129.98h2.44c.94,0,1.65.21,2.15.63s.75.99.75,1.71-.25,1.31-.75,1.74c-.5.43-1.24.64-2.21.64h-1.7v4.14h-.69v-8.87ZM152.32,130.55v3.58h1.65c.74,0,1.3-.16,1.69-.47.38-.31.58-.76.58-1.33s-.19-.98-.56-1.3c-.38-.32-.92-.48-1.62-.48h-1.73Z"/><g class="cls-6"><path class="cls-3" d="M0,60.79C0,24.72,27.55,6.26,52.27,6.26c27.03,0,50.21,18.73,67.46,41.31,17.25-22.58,40.42-41.31,67.46-41.31,24.72,0,52.27,18.45,52.27,54.52s-27.55,54.52-52.27,54.52c-27.03,0-50.21-18.73-67.46-41.03-17.25,22.3-40.42,41.03-67.46,41.03C26.78,115.31,0,96.59,0,60.79ZM109.36,60.79c-11.33-14.98-36.68-29.74-55.22-29.74-14.62,0-28.63,10.79-28.63,29.74s14.01,29.74,28.63,29.74c17.71,0,42.45-12.78,55.22-29.74ZM185.3,31.05c-18.54,0-43.87,14.76-55.2,29.74,11.33,14.98,36.66,29.74,55.2,29.74,14.62,0,28.63-10.57,28.63-29.74s-14.42-29.74-28.63-29.74Z"/><path class="cls-5" d="M67.76,19.18c-1.04-1.22-2.79-1.8-5.69-1.9-5.67-.18-9.15-1.25-11.33-6.38-1.29-3.03-5.9-4.05-9.55-4.36-5.62-.49-14.49.41-16.15,2.99l-.1.16c-9.28,14.3-6.5,21.8-2.54,25.58,2.04,1.94,3.96,2.92,5.74,2.92.65,0,1.25-.21,1.89-.39,5.8-1.64,7.94-12.12,5.86-21.17-.32,3.76.07,7.14-1.07,11.24-1.17,4.19-3.87,7.99-5.58,8.09-1.6.1-3.31-.09-5.46-2.14-3.41-3.25-5.69-9.89,2.84-23.04l.1-.16c.79-1.21,7.65-2.66,14.3-2.08,4.32.37,7.19,1.52,7.88,3.15,2.57,6.07,6.92,7.41,13.11,7.6,2.23.07,3.61.46,4.23,1.19.57.67.69,1.82.41,3.97-.44,3.36-4.28,7.29-4.95,7.67,0,0,.24-.13.58-.05l-.48,1.94c.5.12.89-.15,1.06-.26,1.03-.7,5.23-4.91,5.77-9.04.31-2.34.27-4.18-.87-5.52Z"/><path class="cls-5" d="M43.83,92.23c-6.16,0-12.91-1.1-19.1-4.48-3.69-2.02-16.06-9.8-20.52-25.3C.45,49.37,5.57,28.37,22.63,13.53l1.31,1.51C7.51,29.33,2.55,49.43,6.14,61.89c4.25,14.76,16.04,22.18,19.56,24.1,13.2,7.22,29.25,3.46,35.54,1.51l.15-.05.59,1.91-.15.05c-3.62,1.12-10.35,2.82-18,2.82Z"/><path class="cls-3" d="M195.88,11.55c.91-2.16-5.37-7.18-8.82-9.43-.27-.17-.49-.32-.66-.42,1.43,3.56,1.2,5.96.71,7.51-.28.89-.61,1.38-.38,1.97.87,2.2,8.29,2.42,9.15.38Z"/><path class="cls-2" d="M183.82,33.61c-3.82-1.95-6.82-5.95-7.82-9.95,0-2,5-2,5-4,0-7,7-10,12-11,1-1,1-3,.98-3.71"/><path class="cls-2" d="M185.51,4.15c.32.62.81,1.78.87,3.32.07,1.66-.14,3.56-.43,4.21"/><path class="cls-2" d="M203.59,7.57c7.53,3.13,25.66,11.83,28.31,27.03.11.61.44,2.7.23,7.57-.23,5.3-.62,21.99-7.57,32.27-7.94,11.74-25.38,16.66-43.42,14.71"/><path class="cls-5" d="M74.18,83.68c-.53,5.09-2.94,9.24-5.72,13.33-4.49,6.59-12.88,9.48-20.61,9.21,3.05-.18,6.04-.9,8.82-2.04,5.65-2.19,9.79-6.79,12-12.32,1.05-2.53,2.11-5.36,2.07-8.08,0,0,3.44-.1,3.44-.1Z"/><path class="cls-5" d="M67.99,116.21l-.87-1.8c3.31-1.6,11.48-6.4,15.89-16.4,3.79-8.6,2.87-16.55,1.98-20.52l1.95-.44c.94,4.21,1.92,12.65-2.1,21.77-4.67,10.6-13.34,15.69-16.85,17.39Z"/><path class="cls-1" d="M54.08,66.76h.06c4.99.87,9.98,1.75,14.97,2.62"/><path class="cls-3" d="M72.96,89.96c-.32-.5,0,.04.6-2.84,0,0,.6-2.85.7-4.21.16-2.17-.21-7.31-2.52-10.89-3.06-4.75-9.85-7.2-17.01-6.17.99-.96,5.33-4.96,11.77-4.89,7.92.08,12.94,7.07,15.26,10.25,1.92,2.62,2.71,4.56,3.06,5.69.64,2.08,1.04,5.46.61,7.26-1.38,5.81-11.55,7.27-12.47,5.8Z"/><path class="cls-3" d="M203.5,9.86c.91-2.16-5.37-7.18-8.82-9.43-.27-.17-.49-.32-.66-.42,1.43,3.56,1.2,5.96.71,7.51-.28.89-.61,1.38-.38,1.97.87,2.2,8.29,2.42,9.15.38Z"/><path class="cls-5" d="M168.61,86.31c.53,5.09,2.94,9.24,5.72,13.33,4.49,6.59,12.88,9.48,20.61,9.21-3.05-.18-6.04-.9-8.82-2.04-5.65-2.19-9.79-6.79-12-12.32-1.05-2.53-2.11-5.36-2.07-8.08,0,0-3.44-.1-3.44-.1Z"/><path class="cls-5" d="M174.8,118.84l.87-1.8c-3.31-1.6-11.48-6.4-15.89-16.4-3.79-8.6-2.87-16.55-1.98-20.52l-1.95-.44c-.94,4.21-1.92,12.65,2.1,21.77,4.67,10.6,13.34,15.69,16.85,17.39Z"/><path class="cls-3" d="M169.83,92.6c.32-.5,0,.04-.6-2.84,0,0-.6-2.85-.7-4.21-.16-2.17.21-7.31,2.52-10.89,3.06-4.75,9.85-7.2,17.01-6.17-.99-.96-5.33-4.96-11.77-4.89-7.92.08-12.94,7.07-15.26,10.25-1.92,2.62-2.71,4.56-3.06,5.69-.64,2.08-1.04,5.46-.61,7.26,1.38,5.81,11.55,7.27,12.47,5.8Z"/></g></g></svg>