<?xml version="1.0" encoding="UTF-8"?><svg id="_レイヤー_2" xmlns="http://www.w3.org/2000/svg" viewBox="0 0 35.71 39.24"><defs><style>.cls-1{fill:#64c4db;}</style></defs><g id="_不安"><path class="cls-1" d="M23.02,38.08c-2.13-1.45-4.89-3.33-7.86-5.35l12.44-4.16c4.85-1.62,9.22,1.35,7.86,5.35h0c-1.55,4.56-8.46,6.87-12.44,4.16Z"/><path class="cls-1" d="M12.15,9.91l-7.5,16.24L.19,7.72C-1.2,1.98,5.42-2.29,10.07,1.34h0c2.6,2.03,3.46,5.58,2.07,8.57Z"/><path class="cls-1" d="M29.64,18.85l-16.49,7.01,9.46-16.39c2.88-4.98,10.43-3.44,11.13,2.27h0c.37,3.02-1.3,5.92-4.1,7.11Z"/></g></svg>