<?xml version="1.0" encoding="UTF-8"?><svg id="_レイヤー_2" xmlns="http://www.w3.org/2000/svg" viewBox="0 0 44.41 44.41"><defs><style>.cls-1{fill:#64c4db;}</style></defs><g id="_不安"><path class="cls-1" d="M41.02,19.19l-7.51-2.55,2.55-7.51c.89-2.6-.52-5.46-3.12-6.34L25.53.26c-2.6-.89-5.46.52-6.34,3.12l-2.55,7.51-7.51-2.55c-2.6-.89-5.46.52-6.34,3.12L.27,18.88c-.89,2.6.52,5.46,3.12,6.34l7.51,2.55-2.55,7.51c-.89,2.6.52,5.46,3.12,6.34l7.41,2.52c2.6.89,5.46-.52,6.34-3.12l2.55-7.51,7.51,2.55c2.6.89,5.46-.52,6.34-3.12l2.52-7.41c.89-2.6-.52-5.46-3.12-6.34Z"/></g></svg>